<?xml version="1.0" encoding="UTF-8"?>
<svg version="1.1" xmlns="http://www.w3.org/2000/svg" width="360" height="360">
<path d="M0 0 C6.91986668 0.7593482 10.73786363 5.91044418 15 11 C26.42800657 25.53448698 33.72979486 42.25394398 33 61 C31.84703143 67.77186602 29.74902282 73.26078342 25.625 78.75 C23.51412371 81.65448862 23.51412371 81.65448862 22.921875 85.09375 C23.42644739 87.49481864 24.16047615 89.69401173 25 92 C25.65304819 94.08108302 26.29834723 96.16460742 26.9375 98.25 C27.28296875 99.35214844 27.6284375 100.45429688 27.984375 101.58984375 C34.47776123 123.39263673 34.47776123 123.39263673 32 130 C28.62537285 129.45276317 26.91765 128.9451 24 127 C20.5896024 126.78685015 18.25468201 126.915106 15 128 C15.4021875 129.3303125 15.4021875 129.3303125 15.8125 130.6875 C15.874375 131.780625 15.93625 132.87375 16 134 C14.3777546 135.70993434 12.70586575 137.37347684 11 139 C10.67 140.175625 10.34 141.35125 10 142.5625 C9 146 9 146 6.64453125 147.796875 C3.43815295 150.46806756 2.37156151 152.88895928 0.6875 156.6875 C-2.59490952 163.71612781 -6.58947821 169.65728875 -12.85546875 174.40625 C-16.23170364 175.34101813 -18.11283112 173.86339758 -21.125 172.25 C-22.17945313 171.69828125 -23.23390625 171.1465625 -24.3203125 170.578125 C-27 169 -27 169 -29 167 C-35.36721655 167.31836083 -42.49731875 169.50206767 -47.05859375 174.0546875 C-48.8240991 176.30997821 -50.44262245 178.5969497 -52 181 C-58.18181818 190.45454545 -58.18181818 190.45454545 -62.9375 193.0625 C-66.39387026 192.95776151 -68.56897914 191.27379065 -71 189 C-78.24664556 180.43919592 -81.79668494 169.32879593 -85.5625 158.9375 C-88.66472061 150.88928614 -92.7946885 147.70157741 -100.4296875 144.06640625 C-103.91965203 142.61844224 -107.3043437 141.7780329 -111 141 C-111.99 140.67 -112.98 140.34 -114 140 C-113.6875 138.0625 -113.6875 138.0625 -113 136 C-107.16236038 134.05412013 -100.61820146 136.79131843 -95.19921875 139.29296875 C-85.02993079 145.04887833 -81.18201633 151.92155426 -77.5 162.8125 C-74.83036159 170.62094788 -72.13309631 178.41477776 -67 185 C-66.01 185.33 -65.02 185.66 -64 186 C-60.37900352 182.59788931 -57.75694524 179.24093698 -55.1875 175 C-49.86913851 166.86779621 -43.98077663 164.04704921 -35 161 C-35.53169854 156.5956315 -37.10590426 154.15736578 -39.8125 150.6875 C-42.39150004 147.3433516 -44.24286705 144.64020645 -45.5 140.625 C-46.89399255 137.77312357 -47.93176607 137.03459081 -50.8125 135.57421875 C-67.72377995 129.787838 -86.29138485 127.38063766 -104.02539062 125.66723633 C-109.7059583 125.10065468 -115.16960142 124.00893813 -120.7265625 122.7265625 C-125.01547605 121.77460794 -129.33005331 121.09140899 -133.671875 120.4296875 C-136 120 -136 120 -138 119 C-137.34 117.68 -136.68 116.36 -136 115 C-129.62698781 114.58883792 -124.06106128 115.31272427 -117.875 116.8125 C-110.83496337 118.50851894 -103.88326834 119.5830073 -96.6875 120.375 C-87.07226611 121.45438145 -77.6478714 123.13385483 -68.1875 125.125 C-66.92317139 125.39103027 -65.65884277 125.65706055 -64.35620117 125.93115234 C-55.52445065 127.82518312 -55.52445065 127.82518312 -52 129 C-52.27714844 127.96359375 -52.55429688 126.9271875 -52.83984375 125.859375 C-53.20574582 124.48958778 -53.57163031 123.11979587 -53.9375 121.75 C-54.21110352 120.72712891 -54.21110352 120.72712891 -54.49023438 119.68359375 C-55.35053121 116.46139106 -56.20683134 113.23946777 -57 110 C-58.33804688 109.81824219 -58.33804688 109.81824219 -59.703125 109.6328125 C-60.87359375 109.46523437 -62.0440625 109.29765625 -63.25 109.125 C-64.41015625 108.96257812 -65.5703125 108.80015625 -66.765625 108.6328125 C-69.58193313 108.08179569 -71.55217557 107.44203518 -74 106 C-73.505 104.515 -73.505 104.515 -73 103 C-69.04 103 -65.08 103 -61 103 C-62.93648811 99.61114582 -64.91850896 96.2990514 -67 93 C-67.56847656 92.08089844 -68.13695312 91.16179687 -68.72265625 90.21484375 C-72.22102366 85.17154976 -74.95621663 82.48666612 -81 81 C-83.32532097 80.61472355 -85.66038417 80.28592542 -88 80 C-89.46501907 79.79945369 -90.92985658 79.59757755 -92.39453125 79.39453125 C-96.25791928 78.87556868 -100.1249725 78.42282072 -104 78 C-104.33 76.35 -104.66 74.7 -105 73 C-100.05 73 -95.1 73 -90 73 C-95.43181896 62.13636208 -112.97946643 58.2992403 -123.9375 54.625 C-125.62346103 54.07856204 -127.31034314 53.53490068 -129 53 C-129 51.68 -129 50.36 -129 49 C-112.19816875 49.42585287 -93.77458701 58.48769001 -81.0546875 69.296875 C-80.37664062 69.85890625 -79.69859375 70.4209375 -79 71 C-78.09636719 71.8146875 -77.19273437 72.629375 -76.26171875 73.46875 C-70.41816636 77.59562282 -62.82429635 78.37708927 -55.9375 79.75 C-54.47819853 80.05447374 -53.01921008 80.36045176 -51.56054688 80.66796875 C-45.72403382 81.88813991 -39.8877903 83.05198035 -34 84 C-34.33 82.02 -34.66 80.04 -35 78 C-34.01 77.34 -33.02 76.68 -32 76 C-29.52836684 78.29508794 -27.96232556 80.07534888 -26.4375 83.125 C-23.26084613 86.87182251 -21.02682795 87.1386205 -16.26953125 87.75 C-2.070021 88.85898045 -2.070021 88.85898045 11 84 C11.66 83.67 12.32 83.34 13 83 C12.66986588 76.5890084 9.23841431 71.91400785 5.9375 66.625 C5.36966797 65.69816406 4.80183594 64.77132812 4.21679688 63.81640625 C2.81972384 61.538825 1.4139959 59.26709935 0 57 C0.66 56.01 1.32 55.02 2 54 C6.46231317 55.49421421 8.24105017 58.99561369 10.5625 62.8125 C11.14161133 63.73772461 11.14161133 63.73772461 11.73242188 64.68164062 C12.8338084 66.44723639 13.91712597 68.22301556 15 70 C15.58652344 70.93199219 16.17304688 71.86398438 16.77734375 72.82421875 C18 75 18 75 18 77 C23.73984292 72.03581153 25.83984236 66.43605802 27 59 C27.14015819 38.11642903 16.72185437 21.03925734 2.55175781 6.515625 C1.37508802 5.33647104 0.18859104 4.16713633 -1 3 C-0.67 2.01 -0.34 1.02 0 0 Z M-66 84 C-65.32904297 85.03447266 -65.32904297 85.03447266 -64.64453125 86.08984375 C-63.73767578 87.49943359 -63.73767578 87.49943359 -62.8125 88.9375 C-62.1628125 89.93652344 -61.513125 90.93554688 -60.84375 91.96484375 C-59.23850534 94.60737574 -58.0410373 97.17529493 -56.8125 100 C-54.77121133 103.61894079 -53.11976903 104.75669525 -49.125 105.875 C-46.74412176 106.31579232 -44.39744083 106.68037691 -42 107 C-41.07477539 107.13100098 -40.14955078 107.26200195 -39.19628906 107.39697266 C-32.47320101 108.34210858 -25.74186963 109.20053834 -19 110 C-20.84460955 103.11687364 -22.71366371 97.07425444 -28 92 C-32.91484109 89.54064802 -38.35261172 88.51505646 -43.70947266 87.45556641 C-45.84501125 87.03082594 -47.95722094 86.5511529 -50.07421875 86.04296875 C-55.50092175 84.78000599 -60.4098145 83.84099772 -66 84 Z M6.296875 91.80859375 C0.30135597 93.97522089 -5.00421677 94.12722587 -11.3125 94.0625 C-12.14845703 94.05798828 -12.98441406 94.05347656 -13.84570312 94.04882812 C-15.89716649 94.03710548 -17.94859273 94.01917203 -20 94 C-18.66241249 98.61260847 -16.79956206 102.20593497 -14.125 106.1875 C-13.44695312 107.21230469 -12.76890625 108.23710937 -12.0703125 109.29296875 C-8.66005868 113.75203648 -5.23772156 115.46384725 -0.0625 117.5 C3.02375952 118.71733625 5.7062317 119.79374721 8.42578125 121.703125 C12.00390486 123.50576087 14.34584277 122.91975082 18.25 122.25 C19.49265625 122.04890625 20.7353125 121.8478125 22.015625 121.640625 C24.87072863 121.31025506 24.87072863 121.31025506 26 120 C26.20925778 113.54290275 24.40723886 107.32588367 22.625 101.1875 C22.41601074 100.45853516 22.20702148 99.72957031 21.99169922 98.97851562 C20.77990635 94.95954125 19.44220016 91.47229017 17 88 C13.57623893 88 9.4451557 90.55854112 6.296875 91.80859375 Z M-51 111 C-49.49839696 116.98511281 -48.03999599 122.58087671 -45 128 C-44.75008301 128.66112793 -44.50016602 129.32225586 -44.24267578 130.00341797 C-42.50960146 132.78791341 -40.70964278 133.31292167 -37.6796875 134.5078125 C-36.05087646 135.15157837 -36.05087646 135.15157837 -34.38916016 135.80834961 C-32.64965088 136.46009155 -32.64965088 136.46009155 -30.875 137.125 C-29.70114746 137.56787354 -28.52729492 138.01074707 -27.31787109 138.46704102 C-14.49893736 143.31886331 -14.49893736 143.31886331 -1 144 C1.44780022 141.6377465 1.44780022 141.6377465 3 139 C1.72594127 136.28966915 0.33943761 133.98829259 -1.53125 131.65234375 C-2.01207031 131.04712891 -2.49289062 130.44191406 -2.98828125 129.81835938 C-3.48714844 129.19767578 -3.98601562 128.57699219 -4.5 127.9375 C-5.49055328 126.69738872 -6.48017165 125.45652996 -7.46875 124.21484375 C-7.90638672 123.66948975 -8.34402344 123.12413574 -8.79492188 122.56225586 C-9.93005575 121.0906753 -10.96908133 119.54637801 -12 118 C-23.59482478 112.95393226 -38.43432933 110.31459978 -51 111 Z M3 126 C4 128 4 128 4 128 Z M5 128 C5 128.99 5 129.98 5 131 C5.66 131 6.32 131 7 131 C7 130.01 7 129.02 7 128 C6.34 128 5.68 128 5 128 Z M-39 140 C-37.49450797 144.1810556 -35.42101826 147.74042527 -33.0625 151.5 C-29 158 -29 158 -27.421875 160.765625 C-24.89378433 164.7383389 -21.33428981 166.46060625 -17.0625 168.1875 C-12.85786903 167.93007361 -11.37657165 166.23094829 -8.61328125 163.1796875 C-5.47011272 158.93298522 -3 154.34312299 -3 149 C-7.01881372 147.7497024 -10.90232535 146.83368097 -15.0625 146.1875 C-20.96998214 145.18110069 -26.36972932 143.17438397 -31.93359375 141.0234375 C-35.0935936 139.78893983 -35.0935936 139.78893983 -39 140 Z " fill="#5CECE3" transform="translate(264,59)"/>
<path d="M0 0 C16.80183125 0.42585287 35.22541299 9.48769001 47.9453125 20.296875 C48.96238281 21.13992187 48.96238281 21.13992187 50 22 C50.9075 22.81339844 51.815 23.62679687 52.75 24.46484375 C58.01955692 28.18197603 64.49960015 29.10014775 70.70556641 30.36791992 C72.86701634 30.81086392 75.02110713 31.28116311 77.17578125 31.75585938 C84.17241528 33.26007207 90.80674786 34.41035331 98 34 C98.495 35.98 98.495 35.98 99 38 C94.05 37.34 89.1 36.68 84 36 C84 36.66 84 37.32 84 38 C85.9490625 38.185625 85.9490625 38.185625 87.9375 38.375 C89.6260009 38.57505935 91.31349225 38.78378106 93 39 C94.23556641 39.14888672 94.23556641 39.14888672 95.49609375 39.30078125 C97.81889558 39.67837958 99.833667 40.07671878 102 41 C103.9375 44 103.9375 44 105 47 C105.66 47.66 106.32 48.32 107 49 C108.06182688 50.95747926 109.07725377 52.94037926 110.0625 54.9375 C110.58972656 55.99839844 111.11695313 57.05929688 111.66015625 58.15234375 C113 61 113 61 114 64 C109.71 63.01 105.42 62.02 101 61 C101 60.67 101 60.34 101 60 C103.97 60.33 106.94 60.66 110 61 C109.06506561 59.10290012 108.12693704 57.20737422 107.1875 55.3125 C106.66542969 54.25675781 106.14335937 53.20101562 105.60546875 52.11328125 C105.07566406 51.08589844 104.54585938 50.05851562 104 49 C103.41605469 47.64841797 103.41605469 47.64841797 102.8203125 46.26953125 C100.06875602 42.8389426 96.85734815 42.36403842 92.6875 41.375 C91.88803955 41.17044189 91.0885791 40.96588379 90.26489258 40.75512695 C87.84842281 40.14577723 85.42649911 39.56795747 83 39 C81.94425781 38.74790771 81.94425781 38.74790771 80.8671875 38.49072266 C72.52542339 36.47508756 72.52542339 36.47508756 64 36 C64.71027344 37.03640625 65.42054688 38.0728125 66.15234375 39.140625 C67.08103466 40.51020957 68.00940326 41.88001273 68.9375 43.25 C69.40607422 43.93191406 69.87464844 44.61382812 70.35742188 45.31640625 C70.80537109 45.98027344 71.25332031 46.64414063 71.71484375 47.328125 C72.12855225 47.9355957 72.54226074 48.54306641 72.96850586 49.16894531 C74.05717058 51.10148624 74.56305737 52.83410258 75 55 C75.66 55 76.32 55 77 55 C77 55.66 77 56.32 77 57 C77.66 57 78.32 57 79 57 C79.495 58.98 79.495 58.98 80 61 C77.69 60.67 75.38 60.34 73 60 C73.495 62.475 73.495 62.475 74 65 C73.70222656 64.04480469 73.70222656 64.04480469 73.3984375 63.0703125 C72.12336715 60.69156506 72.12336715 60.69156506 69.1015625 60.2421875 C67.38066406 60.06042969 67.38066406 60.06042969 65.625 59.875 C61.63721504 59.43391318 58.47411707 59.07077914 55 57 C55.33 56.01 55.66 55.02 56 54 C59.96 54 63.92 54 68 54 C66.06351189 50.61114582 64.08149104 47.2990514 62 44 C61.43152344 43.08089844 60.86304688 42.16179687 60.27734375 41.21484375 C56.77897634 36.17154976 54.04378337 33.48666612 48 32 C45.67467903 31.61472355 43.33961583 31.28592542 41 31 C39.53498093 30.79945369 38.07014342 30.59757755 36.60546875 30.39453125 C32.74208072 29.87556868 28.8750275 29.42282072 25 29 C24.505 26.525 24.505 26.525 24 24 C28.95 24 33.9 24 39 24 C33.56818104 13.13636208 16.02053357 9.2992403 5.0625 5.625 C3.37653897 5.07856204 1.68965686 4.53490068 0 4 C0 2.68 0 1.36 0 0 Z " fill="#41D9E1" transform="translate(135,108)"/>
<path d="M0 0 C7.17448227 1.52648559 14.25751524 5.25198841 19 11 C19 11.99 19 12.98 19 14 C19.99 14.33 20.98 14.66 22 15 C21.75 17.3125 21.75 17.3125 21 20 C20.0409375 20.680625 20.0409375 20.680625 19.0625 21.375 C16.64868904 22.94530814 16.64868904 22.94530814 16.0625 26.4375 C15 30 15 30 12.640625 31.8046875 C9.43395715 34.47058592 8.37026835 36.89187611 6.6875 40.6875 C3.31454921 47.91000395 -1.12079176 56.0636491 -9 59 C-9.66 58.67 -10.32 58.34 -11 58 C-11 57.34 -11 56.68 -11 56 C-9.02 55.505 -9.02 55.505 -7 55 C-7 53.68 -7 52.36 -7 51 C-5.828125 49.2109375 -5.828125 49.2109375 -4.25 47.375 C-0.73275253 42.95760389 1.15424367 38.29840639 3 33 C1.6078125 32.814375 1.6078125 32.814375 0.1875 32.625 C-4.90135357 31.90250844 -9.94788354 30.94099095 -15 30 C-15 29.01 -15 28.02 -15 27 C-12 26 -12 26 -9 27 C-8.67 27.66 -8.34 28.32 -8 29 C-7.67 28.67 -7.34 28.34 -7 28 C-5.00041636 27.95919217 -2.99954746 27.95745644 -1 28 C-1 28.66 -1 29.32 -1 30 C-0.34 30 0.32 30 1 30 C1 29.34 1 28.68 1 28 C2.175625 27.6596875 2.175625 27.6596875 3.375 27.3125 C6.65858937 25.67070532 6.83731147 24.36310374 8 21 C7.22914063 20.10796875 6.45828125 19.2159375 5.6640625 18.296875 C4.65082719 17.11476714 3.6378182 15.93246525 2.625 14.75 C2.11710937 14.16347656 1.60921875 13.57695312 1.0859375 12.97265625 C-1.35145558 10.11834067 -3.55699048 7.5119027 -5 4 C1.11987083 5.19997467 3.4549418 6.84355171 7 12 C7 12.66 7 13.32 7 14 C7.66 14 8.32 14 9 14 C10.625 16.5 10.625 16.5 12 19 C13.98 18.67 15.96 18.34 18 18 C17.01 16.02 16.02 14.04 15 12 C13.35 12.33 11.7 12.66 10 13 C10.66 11.35 11.32 9.7 12 8 C11.319375 7.731875 10.63875 7.46375 9.9375 7.1875 C6.60289191 5.83946694 3.30256763 4.42463702 0 3 C0 2.01 0 1.02 0 0 Z " fill="#67F3E7" transform="translate(258,175)"/>
<path d="M0 0 C0.66 0.165 1.32 0.33 2 0.5 C5.75634115 1.12605686 9.19113754 1.12696208 13 1 C13.33 0.67 13.66 0.34 14 0 C18.04819205 -0.253012 21.43967838 0.0265257 25.375 1 C30.0114221 2.13317029 34.23820052 2.15116824 39 2 C39.495 3.98 39.495 3.98 40 6 C32.575 5.01 32.575 5.01 25 4 C25 4.66 25 5.32 25 6 C26.299375 6.12375 27.59875 6.2475 28.9375 6.375 C30.6260009 6.57505935 32.31349225 6.78378106 34 7 C34.82371094 7.09925781 35.64742187 7.19851562 36.49609375 7.30078125 C38.81889558 7.67837958 40.833667 8.07671878 43 9 C44.9375 12 44.9375 12 46 15 C46.66 15.66 47.32 16.32 48 17 C49.06182688 18.95747926 50.07725377 20.94037926 51.0625 22.9375 C51.58972656 23.99839844 52.11695313 25.05929688 52.66015625 26.15234375 C54 29 54 29 55 32 C50.71 31.01 46.42 30.02 42 29 C42 28.67 42 28.34 42 28 C44.97 28.33 47.94 28.66 51 29 C50.06506561 27.10290012 49.12693704 25.20737422 48.1875 23.3125 C47.66542969 22.25675781 47.14335937 21.20101562 46.60546875 20.11328125 C46.07566406 19.08589844 45.54585937 18.05851562 45 17 C44.41605469 15.64841797 44.41605469 15.64841797 43.8203125 14.26953125 C41.06875602 10.8389426 37.85734815 10.36403842 33.6875 9.375 C32.88803955 9.17044189 32.0885791 8.96588379 31.26489258 8.75512695 C28.84842281 8.14577723 26.42649911 7.56795747 24 7 C23.29617187 6.83193848 22.59234375 6.66387695 21.8671875 6.49072266 C13.52542339 4.47508756 13.52542339 4.47508756 5 4 C5.71027344 5.03640625 6.42054688 6.0728125 7.15234375 7.140625 C8.08103466 8.51020957 9.00940326 9.88001273 9.9375 11.25 C10.40607422 11.93191406 10.87464844 12.61382812 11.35742188 13.31640625 C11.80537109 13.98027344 12.25332031 14.64414063 12.71484375 15.328125 C13.12855225 15.9355957 13.54226074 16.54306641 13.96850586 17.16894531 C15.05717058 19.10148624 15.56305737 20.83410258 16 23 C16.66 23 17.32 23 18 23 C18 23.66 18 24.32 18 25 C18.66 25 19.32 25 20 25 C20.33 26.32 20.66 27.64 21 29 C18.69 28.67 16.38 28.34 14 28 C14.33 29.65 14.66 31.3 15 33 C14.80148438 32.36320312 14.60296875 31.72640625 14.3984375 31.0703125 C13.12336715 28.69156506 13.12336715 28.69156506 10.1015625 28.2421875 C8.95429688 28.12101562 7.80703125 27.99984375 6.625 27.875 C2.63721504 27.43391318 -0.52588293 27.07077914 -4 25 C-3.67 24.01 -3.34 23.02 -3 22 C0.96 22 4.92 22 9 22 C4.87619178 14.78333562 0.33796581 8.36762419 -5 2 C-4.01 1.67 -3.02 1.34 -2 1 C-1.34 1.33 -0.68 1.66 0 2 C0 1.34 0 0.68 0 0 Z " fill="#49E2E1" transform="translate(194,140)"/>
<path d="M0 0 C6.91986668 0.7593482 10.73786363 5.91044418 15 11 C26.41278071 25.51512227 33.76711571 42.26922601 33 61 C31.7174921 68.19586768 29.22058704 76.59729946 24 82 C21.84375 82.703125 21.84375 82.703125 20 83 C19.34 82.01 18.68 81.02 18 80 C18.66 80 19.32 80 20 80 C21.71990613 76.78385267 22.91520792 73.52182556 24.0625 70.0625 C24.40410156 69.04285156 24.74570312 68.02320312 25.09765625 66.97265625 C29.29156983 53.15634355 25.2051977 40.08286495 18.9375 27.5625 C13.74028528 18.23445371 6.58533233 10.44841297 -1 3 C-0.67 2.01 -0.34 1.02 0 0 Z " fill="#75F1E6" transform="translate(264,59)"/>
<path d="M0 0 C6.37308573 -0.41116682 11.93886527 0.31301763 18.125 1.8125 C25.04492539 3.47667571 31.86435755 4.54417526 38.9375 5.3125 C55.14356547 7.10957079 71.05798712 10.65080298 87 14 C86.67 14.99 86.34 15.98 86 17 C85.14728516 16.87431641 85.14728516 16.87431641 84.27734375 16.74609375 C83.50519531 16.64425781 82.73304688 16.54242188 81.9375 16.4375 C81.18339844 16.33308594 80.42929688 16.22867188 79.65234375 16.12109375 C76.91735302 15.88835675 76.91735302 15.88835675 73.9609375 16.6171875 C68.28083622 17.16615192 63.2324948 15.8803093 57.6875 14.6875 C49.88895515 13.0892232 42.1786982 11.62256047 34.25 10.875 C27.79450809 10.26174641 21.60299872 9.18723047 15.2734375 7.7265625 C10.98452395 6.77460794 6.66994669 6.09140899 2.328125 5.4296875 C0 5 0 5 -2 4 C-1.34 2.68 -0.68 1.36 0 0 Z " fill="#44EAED" transform="translate(128,174)"/>
<path d="M0 0 C8.87956344 3.99882381 14.84433126 9.42782659 18.34375 18.58203125 C19.07765813 20.65354612 19.79614418 22.73058214 20.5 24.8125 C24.34832736 38.08364907 24.34832736 38.08364907 32.92724609 48.06030273 C35.0432367 48.73079911 35.0432367 48.73079911 38 49 C37.34 50.32 36.68 51.64 36 53 C31.56982019 52.48486281 28.58313192 51.68320819 25 49 C23.50869714 46.63438429 22.30049538 44.44948844 21.125 41.9375 C20.61682739 40.89468872 20.61682739 40.89468872 20.09838867 39.83081055 C17.18422206 33.71656165 14.73729613 27.4280399 12.52197266 21.02905273 C9.67845831 13.17085468 4.98062272 9.59459873 -2.4296875 6.06640625 C-5.91965203 4.61844224 -9.3043437 3.7780329 -13 3 C-13.99 2.67 -14.98 2.34 -16 2 C-15.625 0.0625 -15.625 0.0625 -15 -2 C-10.61876243 -4.19061879 -4.44421919 -1.37785826 0 0 Z " fill="#4CE5E5" transform="translate(166,197)"/>
<path d="M0 0 C19.5308847 5.93496651 45.88161147 22.02297288 55.8125 40.34375 C56.4003125 41.65859375 56.4003125 41.65859375 57 43 C54.525 43.495 54.525 43.495 52 44 C51.61070312 43.52691406 51.22140625 43.05382812 50.8203125 42.56640625 C36.58646712 25.74160745 18.24955834 15.16245973 -1 5 C-0.67 3.35 -0.34 1.7 0 0 Z " fill="#54E8E5" transform="translate(204,63)"/>
<path d="M0 0 C1.11552246 -0.00467285 2.23104492 -0.0093457 3.38037109 -0.01416016 C11.06504441 0.00053762 18.65971257 0.43451111 26.3125 1.125 C26.875 3.0625 26.875 3.0625 27.3125 5.125 C26.3125 6.125 26.3125 6.125 23.27172852 6.22265625 C21.91158811 6.21575588 20.55146858 6.20362445 19.19140625 6.1875 C17.69148816 6.17894281 16.19156951 6.17048302 14.69165039 6.16210938 C13.90420441 6.15590576 13.11675842 6.14970215 12.30545044 6.14331055 C0.46730362 6.05412422 -11.29825169 6.08073053 -23.11328125 6.90234375 C-28.30709948 7.22589308 -33.48624487 7.21678686 -38.6875 7.125 C-38.6875 5.805 -38.6875 4.485 -38.6875 3.125 C-26.06075969 -0.25716258 -12.98003422 0.03738592 0 0 Z " fill="#4BD1D6" transform="translate(121.6875,129.875)"/>
<path d="M0 0 C14.11858266 -0.91251163 27.6671286 2.14409683 40.875 7 C41.52251221 7.2367041 42.17002441 7.4734082 42.8371582 7.71728516 C46.78088416 9.25882372 49.95797345 11.03893993 53 14 C53 14.99 53 15.98 53 17 C48.78628587 18.40457138 46.29992021 16.5538292 42.5 14.75 C31.51660005 9.78384784 21.11722035 7.56112049 9.17114258 6.08886719 C8.28966553 5.97575195 7.40818848 5.86263672 6.5 5.74609375 C5.7059375 5.64997803 4.911875 5.5538623 4.09375 5.45483398 C2 5 2 5 -1 3 C-0.67 2.01 -0.34 1.02 0 0 Z " fill="#36DBE4" transform="translate(140,79)"/>
<path d="M0 0 C0.75684082 0.00080566 1.51368164 0.00161133 2.29345703 0.00244141 C10.06228406 0.07876777 17.81586482 0.48147638 25.57025146 0.93515015 C27.02049627 1.0198794 28.47089938 1.10194207 29.92144775 1.18130493 C31.98739415 1.29627672 34.0522093 1.42358003 36.1171875 1.5546875 C37.3222998 1.62800293 38.52741211 1.70131836 39.76904297 1.77685547 C42.63511624 2.15578451 44.43106101 2.69965475 46.875 4.1875 C46.875 5.1775 46.875 6.1675 46.875 7.1875 C7.34987897 7.78103884 7.34987897 7.78103884 -8.125 4.1875 C-8.455 3.1975 -8.785 2.2075 -9.125 1.1875 C-6.18163225 -0.28418388 -3.22784217 -0.0036276 0 0 Z " fill="#50E3E5" transform="translate(135.125,157.8125)"/>
<path d="M0 0 C10.84865856 33.40357716 10.84865856 33.40357716 8 41 C4.62537285 40.45276317 2.91765 39.9451 0 38 C-2.33199388 37.92094936 -4.66832622 37.91201231 -7 38 C-7 37.34 -7 36.68 -7 36 C-1.555 35.505 -1.555 35.505 4 35 C4 34.34 4 33.68 4 33 C3.01 33 2.02 33 1 33 C1.06058594 31.90300781 1.12117188 30.80601562 1.18359375 29.67578125 C1.18239379 24.22914664 -0.35602668 19.35895393 -1.9375 14.1875 C-2.21529297 13.24712891 -2.49308594 12.30675781 -2.77929688 11.33789062 C-3.80668585 7.87447576 -4.85755907 4.42732278 -6 1 C-4 0 -4 0 0 0 Z " fill="#79F5ED" transform="translate(288,148)"/>
<path d="M0 0 C4.46231317 1.49421421 6.24105017 4.99561369 8.5625 8.8125 C8.94857422 9.42931641 9.33464844 10.04613281 9.73242188 10.68164062 C10.8338084 12.44723639 11.91712597 14.22301556 13 16 C13.87978516 17.39798828 13.87978516 17.39798828 14.77734375 18.82421875 C16 21 16 21 16 23 C17.65 22.01 19.3 21.02 21 20 C19.79618552 22.49361571 18.54571278 24.68143083 17 27 C17.99 27 18.98 27 20 27 C21.35439668 29.70879335 21.06501451 32.00933268 21 35 C18.6875 35.6875 18.6875 35.6875 16 36 C14.1875 34.5625 14.1875 34.5625 13 33 C13.66 32.01 14.32 31.02 15 30 C14.44570313 30.30035156 13.89140625 30.60070312 13.3203125 30.91015625 C12.59585937 31.29042969 11.87140625 31.67070312 11.125 32.0625 C10.40570313 32.44535156 9.68640625 32.82820313 8.9453125 33.22265625 C7.98238281 33.60744141 7.98238281 33.60744141 7 34 C6.34 33.67 5.68 33.34 5 33 C6.98 31.68 8.96 30.36 11 29 C10.66986588 22.5890084 7.23841431 17.91400785 3.9375 12.625 C3.36966797 11.69816406 2.80183594 10.77132812 2.21679688 9.81640625 C0.81972384 7.538825 -0.5860041 5.26709935 -2 3 C-1.34 2.01 -0.68 1.02 0 0 Z " fill="#4AE9E2" transform="translate(266,113)"/>
<path d="M0 0 C1.31436035 0.00290039 1.31436035 0.00290039 2.65527344 0.00585938 C12.51316922 0.06875981 22.34684426 0.57171012 32.1875 1.125 C32.6825 3.6 32.6825 3.6 33.1875 6.125 C27.40341441 6.1744009 21.61945136 6.21072 15.83520508 6.23486328 C13.86708436 6.24492707 11.89897862 6.25857934 9.9309082 6.27587891 C7.10364082 6.30011059 4.27657095 6.31147923 1.44921875 6.3203125 C0.56787766 6.33063507 -0.31346344 6.34095764 -1.22151184 6.35159302 C-2.04213608 6.35174408 -2.86276031 6.35189514 -3.70825195 6.35205078 C-4.42995071 6.356492 -5.15164948 6.36093323 -5.8952179 6.36550903 C-7.8125 6.125 -7.8125 6.125 -10.8125 4.125 C-10.8125 3.135 -10.8125 2.145 -10.8125 1.125 C-7.45774597 -0.55237701 -3.68686391 -0.01947042 0 0 Z " fill="#40E6E9" transform="translate(83.8125,155.875)"/>
<path d="M0 0 C0.92490234 0.07001221 1.84980469 0.14002441 2.80273438 0.2121582 C3.67478516 0.29296631 4.54683594 0.37377441 5.4453125 0.45703125 C6.61731201 0.55914917 6.61731201 0.55914917 7.81298828 0.66333008 C10.27696345 1.28968039 11.25978355 2.26697218 12.875 4.1875 C12.545 4.8475 12.215 5.5075 11.875 6.1875 C2.23670532 6.31506566 -7.36855375 6.1296957 -17 5.75 C-18.06412109 5.71076416 -19.12824219 5.67152832 -20.22460938 5.63110352 C-21.71831055 5.56814087 -21.71831055 5.56814087 -23.2421875 5.50390625 C-24.13534668 5.46724854 -25.02850586 5.43059082 -25.94873047 5.39282227 C-28.125 5.1875 -28.125 5.1875 -30.125 4.1875 C-29.795 2.8675 -29.465 1.5475 -29.125 0.1875 C-19.59769968 -1.96995025 -9.64581887 -0.81508158 0 0 Z " fill="#56DADA" transform="translate(113.125,103.8125)"/>
<path d="M0 0 C0.99 0.99 1.98 1.98 3 3 C2.67 3.99 2.34 4.98 2 6 C-0.4765625 7.0703125 -0.4765625 7.0703125 -3.625 8.125 C-10.23203634 10.72230288 -13.29244294 14.08257136 -17 20 C-23.18181818 29.45454545 -23.18181818 29.45454545 -27.9375 32.0625 C-31.30444998 31.96047121 -33.38083607 29.96437295 -36 28 C-32.88772805 28 -30.05847848 28.45627049 -27 29 C-27 27.68 -27 26.36 -27 25 C-24.95481181 21.15127409 -22.43037917 17.61480446 -20 14 C-19.59523437 13.30777344 -19.19046875 12.61554688 -18.7734375 11.90234375 C-14.57324248 5.02792384 -7.19355425 2.8388848 0 0 Z " fill="#6DEEE7" transform="translate(229,220)"/>
<path d="M0 0 C11.22578109 5.23869784 20.50669827 16.61071723 27 27 C27 27.99 27 28.98 27 30 C25.68 30.33 24.36 30.66 23 31 C22.24074219 30.09636719 21.48148438 29.19273438 20.69921875 28.26171875 C19.69538445 27.07025187 18.69147422 25.87884898 17.6875 24.6875 C16.93823242 23.79514648 16.93823242 23.79514648 16.17382812 22.88476562 C15.44389648 22.01948242 15.44389648 22.01948242 14.69921875 21.13671875 C14.25408936 20.60780029 13.80895996 20.07888184 13.3503418 19.53393555 C11.99559221 17.94676301 11.99559221 17.94676301 10.33129883 16.42895508 C9 15 9 15 9 13 C8.41734375 12.74476562 7.8346875 12.48953125 7.234375 12.2265625 C4.78611777 10.88258913 3.18256752 9.38189704 1.25 7.375 C0.63640625 6.74335937 0.0228125 6.11171875 -0.609375 5.4609375 C-1.29773438 4.73777344 -1.29773438 4.73777344 -2 4 C-1.34 2.68 -0.68 1.36 0 0 Z " fill="#5CDDDC" transform="translate(200,98)"/>
<path d="M0 0 C26.55129132 0.95295476 26.55129132 0.95295476 38 6 C38 7.32 38 8.64 38 10 C32.41416866 10.17175685 27.24725874 9.51370487 21.75 8.5625 C15.48285281 7.51747092 9.28030768 6.62679083 2.93359375 6.2109375 C1 6 1 6 -1 5 C-0.67 3.35 -0.34 1.7 0 0 Z " fill="#5CE8E5" transform="translate(156,54)"/>
<path d="M0 0 C5.99490332 0.82688322 11.52735132 2.80354912 17.1875 4.875 C18.20287842 5.24141602 18.20287842 5.24141602 19.23876953 5.61523438 C23.60544096 7.26384286 27.27167149 9.17396104 31 12 C31.875 14.25 31.875 14.25 32 16 C29 17 29 17 26.42578125 15.9609375 C25.39839844 15.43757813 24.37101562 14.91421875 23.3125 14.375 C17.40799064 11.50253599 11.5575026 9.48213526 5.20629883 7.82568359 C0.30549964 6.45046864 0.30549964 6.45046864 -1.45703125 3.8515625 C-1.63621094 3.24054687 -1.81539062 2.62953125 -2 2 C-1.34 1.34 -0.68 0.68 0 0 Z " fill="#47DEE0" transform="translate(224,39)"/>
<path d="M0 0 C8.04456097 0.70436248 16.01350895 1.81468505 24 3 C24 3.66 24 4.32 24 5 C26.31 5.33 28.62 5.66 31 6 C30.67 6.66 30.34 7.32 30 8 C20.07092668 8.27538262 10.79539929 7.53653322 1 6 C1.99 8.97 2.98 11.94 4 15 C3.34 15 2.68 15 2 15 C2 15.66 2 16.32 2 17 C0.68 16.67 -0.64 16.34 -2 16 C-2.66 12.04 -3.32 8.08 -4 4 C-2.02 4 -0.04 4 2 4 C2 3.01 2 2.02 2 1 C1.34 0.67 0.68 0.34 0 0 Z " fill="#3FE9EB" transform="translate(212,164)"/>
<path d="M0 0 C1.77706209 2.66559313 2.87548273 5.0280615 4 8 C4.66 7.67 5.32 7.34 6 7 C6 7.66 6 8.32 6 9 C6.66 9 7.32 9 8 9 C8.53109375 10.13179687 9.0621875 11.26359375 9.609375 12.4296875 C10.32227425 13.91176752 11.03585143 15.39352157 11.75 16.875 C12.09804687 17.62136719 12.44609375 18.36773437 12.8046875 19.13671875 C13.15273437 19.85214844 13.50078125 20.56757813 13.859375 21.3046875 C14.17358398 21.96452637 14.48779297 22.62436523 14.81152344 23.30419922 C17.02591207 26.4638425 20.36747269 27.22160129 24 28 C23.34 29.32 22.68 30.64 22 32 C17.56679692 31.48451127 14.574331 30.70267666 11 28 C9.35965455 25.63044812 8.15308369 23.10793554 6.9375 20.5 C6.59460938 19.79037109 6.25171875 19.08074219 5.8984375 18.34960938 C3.21503956 12.70223007 0.91737979 6.95396882 -1 1 C-0.67 0.67 -0.34 0.34 0 0 Z " fill="#54EAE6" transform="translate(180,218)"/>
<path d="M0 0 C4.33706387 1.75504067 5.52220854 4.23574771 7.65625 8.22265625 C8.87839757 10.1819108 8.87839757 10.1819108 11.15625 10.74609375 C11.7646875 10.82988281 12.373125 10.91367188 13 11 C13 11.66 13 12.32 13 13 C13.66 13 14.32 13 15 13 C15 13.99 15 14.98 15 16 C12.525 15.505 12.525 15.505 10 15 C10.33 16.32 10.66 17.64 11 19 C10.01 19.33 9.02 19.66 8 20 C7.85820312 19.22269531 7.71640625 18.44539063 7.5703125 17.64453125 C6.3004433 14.91208088 6.3004433 14.91208088 4.14746094 14.21240234 C1.73314022 13.60287684 -0.67301242 13.12119765 -3.125 12.6875 C-4.39923828 12.43516602 -4.39923828 12.43516602 -5.69921875 12.17773438 C-7.79571025 11.7655029 -9.89745581 11.38015698 -12 11 C-12 10.34 -12 9.68 -12 9 C-6.5814234 8.77422598 -2.22512279 9.53329887 3 11 C2.34 10.01 1.68 9.02 1 8 C0.34 8 -0.32 8 -1 8 C-1.625 5.125 -1.625 5.125 -2 2 C-1.34 1.34 -0.68 0.68 0 0 Z " fill="#57F8EB" transform="translate(231,135)"/>
<path d="M0 0 C3.37453898 -0.14611313 6.74825766 -0.23433467 10.125 -0.3125 C11.07632813 -0.35439453 12.02765625 -0.39628906 13.0078125 -0.43945312 C20.96236004 -0.57755291 20.96236004 -0.57755291 24.4921875 2.39453125 C25.31976563 3.25433594 26.14734375 4.11414063 27 5 C27.99 5.66 28.98 6.32 30 7 C30 7.66 30 8.32 30 9 C26.31134403 8.55068001 22.62434556 8.08892249 18.9375 7.625 C17.37999023 7.43550781 17.37999023 7.43550781 15.79101562 7.2421875 C10.34580723 6.55073247 5.22177857 5.70355897 0 4 C0 2.68 0 1.36 0 0 Z " fill="#2FD9E2" transform="translate(159,132)"/>
<path d="M0 0 C0.99 0 1.98 0 3 0 C2.890625 2.328125 2.890625 2.328125 2 5 C-0.765625 6.546875 -0.765625 6.546875 -4.25 7.75 C-5.38953125 8.15734375 -6.5290625 8.5646875 -7.703125 8.984375 C-14.88735424 11.19752619 -21.64761223 11.83809694 -29 10 C-29 9.34 -29 8.68 -29 8 C-29.66 8 -30.32 8 -31 8 C-31 7.34 -31 6.68 -31 6 C-23.57142857 5.85714286 -23.57142857 5.85714286 -20 7 C-20 6.34 -20 5.68 -20 5 C-18.69675781 4.81824219 -18.69675781 4.81824219 -17.3671875 4.6328125 C-16.21476562 4.46523437 -15.06234375 4.29765625 -13.875 4.125 C-12.16957031 3.88136719 -12.16957031 3.88136719 -10.4296875 3.6328125 C-4.78586709 2.77793072 -4.78586709 2.77793072 0 0 Z " fill="#5CF3EB" transform="translate(278,143)"/>
<path d="M0 0 C6.37308573 -0.41116682 11.93886527 0.31301763 18.125 1.8125 C25.04492539 3.47667571 31.86435755 4.54417526 38.9375 5.3125 C55.14356547 7.10957079 71.05798712 10.65080298 87 14 C86.67 14.99 86.34 15.98 86 17 C85.33693848 16.83395264 84.67387695 16.66790527 83.99072266 16.49682617 C66.57215225 12.15948479 49.48873253 8.60231248 31.62963867 6.84106445 C25.11319177 6.13911711 18.95597103 4.6544364 12.6484375 2.90234375 C8.7415434 1.93607765 4.99740295 1.42797802 1 1 C1 1.99 1 2.98 1 4 C4.63 4.33 8.26 4.66 12 5 C12 5.33 12 5.66 12 6 C6.78020872 6.1799928 2.92737019 5.97094808 -2 4 C-1.34 2.68 -0.68 1.36 0 0 Z " fill="#47D4D4" transform="translate(128,174)"/>
<path d="M0 0 C5.3537465 1.55652055 10.00150947 3.9817509 14.875 6.625 C15.65875 7.04523438 16.4425 7.46546875 17.25 7.8984375 C19.16892057 8.9281022 21.08477603 9.96347567 23 11 C23 12.32 23 13.64 23 15 C20.42406013 15.97502945 19.31630931 16.12379227 16.70996094 15.10375977 C15.89301758 14.63768311 15.07607422 14.17160645 14.234375 13.69140625 C13.34492188 13.19189453 12.45546875 12.69238281 11.5390625 12.17773438 C10.61867187 11.64470703 9.69828125 11.11167969 8.75 10.5625 C7.81414062 10.03333984 6.87828125 9.50417969 5.9140625 8.95898438 C3.60293038 7.65012894 1.29886842 6.33024053 -1 5 C-0.67 3.35 -0.34 1.7 0 0 Z " fill="#36E1E7" transform="translate(204,63)"/>
<path d="M0 0 C2.5625718 -0.02710123 5.12485365 -0.04688771 7.6875 -0.0625 C8.40873047 -0.07087891 9.12996094 -0.07925781 9.87304688 -0.08789062 C13.71555382 -0.10543632 17.26639526 0.06475779 21 1 C21 1.66 21 2.32 21 3 C21.66 3 22.32 3 23 3 C23.33 4.32 23.66 5.64 24 7 C21.69 6.67 19.38 6.34 17 6 C17.33 7.65 17.66 9.3 18 11 C17.80148438 10.36320313 17.60296875 9.72640625 17.3984375 9.0703125 C16.12336715 6.69156506 16.12336715 6.69156506 13.1015625 6.2421875 C11.95429688 6.12101563 10.80703125 5.99984375 9.625 5.875 C5.63721504 5.43391318 2.47411707 5.07077914 -1 3 C-0.67 2.01 -0.34 1.02 0 0 Z " fill="#29E4E6" transform="translate(191,162)"/>
<path d="M0 0 C3.94721131 0.26912804 5.52405783 0.45606609 8.1875 3.5 C9.0846875 4.7375 9.0846875 4.7375 10 6 C10.99 6.33 11.98 6.66 13 7 C14.51209163 9.1250236 15.86473383 11.20099662 17.1875 13.4375 C17.55552734 14.03626953 17.92355469 14.63503906 18.30273438 15.25195312 C21 19.72070675 21 19.72070675 21 22 C18.1006519 22.11597392 16.60228017 22.14542555 14 21 C12.23132117 18.74027409 10.96774092 16.38428103 9.62109375 13.8515625 C7.34696227 9.85128304 4.47709697 6.4603355 1.5390625 2.93359375 C0 1 0 1 0 0 Z " fill="#54E2DA" transform="translate(189,141)"/>
<path d="M0 0 C3.96271359 0.95105126 6.53177455 1.66409913 9.875 4.0625 C13.89325559 6.55381847 17.35377065 6.79350092 22 7 C21.67 8.65 21.34 10.3 21 12 C14.67485898 13.58128525 11.49827286 12.26893113 6 9 C5.05125 8.525625 4.1025 8.05125 3.125 7.5625 C0.53796287 5.66026681 -0.09730492 4.03633801 -1 1 C-0.67 0.67 -0.34 0.34 0 0 Z " fill="#4DECE6" transform="translate(231,219)"/>
<path d="M0 0 C11.22 0 22.44 0 34 0 C33.67 1.32 33.34 2.64 33 4 C21.63216352 4.16938829 10.34615583 3.63922005 -1 3 C-0.67 2.01 -0.34 1.02 0 0 Z " fill="#61E7E3" transform="translate(115,132)"/>
<path d="M0 0 C5.73744405 -0.19850532 10.493176 0.38332799 16 1.9375 C20.11960439 3.07602348 24.0471934 4.05249918 28.3125 4.44140625 C32 5 32 5 34 6.5625 C34.495 7.2740625 34.495 7.2740625 35 8 C26.72984476 8.2144997 19.03764031 8.07422976 11 6 C11 5.34 11 4.68 11 4 C7.37 3.67 3.74 3.34 0 3 C0 2.01 0 1.02 0 0 Z " fill="#33E9F1" transform="translate(129,175)"/>
<path d="M0 0 C7.65559971 -0.85062219 13.96058036 2.43561132 20.33203125 6.48046875 C20.88246094 6.98191406 21.43289062 7.48335938 22 8 C22 8.99 22 9.98 22 11 C17.70441771 12.43186076 14.96268784 10.4926899 11.0625 8.6875 C10.34642578 8.36587891 9.63035156 8.04425781 8.89257812 7.71289062 C5.56055768 6.20900373 2.25151077 4.6724481 -1 3 C-0.67 2.01 -0.34 1.02 0 0 Z " fill="#5DE3E2" transform="translate(171,85)"/>
<path d="M0 0 C1.43931117 0.45261358 2.87638999 0.91232979 4.3125 1.375 C5.11300781 1.63023437 5.91351563 1.88546875 6.73828125 2.1484375 C9 3 9 3 12 5 C11.67 5.99 11.34 6.98 11 8 C11 8.66 11 9.32 11 10 C11 10.66 11 11.32 11 12 C11.66 12 12.32 12 13 12 C13 10.68 13 9.36 13 8 C14.9375 8.6875 14.9375 8.6875 17 10 C17.75 12.625 17.75 12.625 18 15 C16.02 15.66 14.04 16.32 12 17 C9 13.25 9 13.25 9 11 C8.34 11 7.68 11 7 11 C5.2734375 9.1015625 5.2734375 9.1015625 3.375 6.625 C2.42753906 5.40683594 2.42753906 5.40683594 1.4609375 4.1640625 C0 2 0 2 0 0 Z " fill="#53DCCE" transform="translate(258,178)"/>
<path d="M0 0 C0.89847656 0.17144531 1.79695312 0.34289062 2.72265625 0.51953125 C3.45355469 0.73996094 4.18445313 0.96039063 4.9375 1.1875 C5.2675 1.8475 5.5975 2.5075 5.9375 3.1875 C7.81763106 4.30974855 7.81763106 4.30974855 10 5.3125 C10.73347656 5.66570312 11.46695313 6.01890625 12.22265625 6.3828125 C13.07150391 6.78113281 13.07150391 6.78113281 13.9375 7.1875 C13.9375 7.8475 13.9375 8.5075 13.9375 9.1875 C6.1876365 8.66208553 -0.7075086 6.63158524 -8.0625 4.1875 C-7.6875 2.25 -7.6875 2.25 -7.0625 0.1875 C-4.37114154 -1.15817923 -2.92373106 -0.58474621 0 0 Z " fill="#48DBE4" transform="translate(158.0625,194.8125)"/>
<path d="M0 0 C2.77170395 0.11386459 5.54178046 0.24060778 8.3125 0.375 C9.09818359 0.4059375 9.88386719 0.436875 10.69335938 0.46875 C11.8293457 0.52675781 11.8293457 0.52675781 12.98828125 0.5859375 C14.03302612 0.63306885 14.03302612 0.63306885 15.09887695 0.68115234 C17 1 17 1 20 3 C20 3.66 20 4.32 20 5 C15.89162554 5.98600987 12.03138166 6.13389122 7.8125 6.125 C6.58144531 6.12757812 5.35039062 6.13015625 4.08203125 6.1328125 C1 6 1 6 -1 5 C-0.67 3.35 -0.34 1.7 0 0 Z " fill="#47DAE1" transform="translate(156,54)"/>
<path d="M0 0 C5.43953716 2.18790273 8.48314246 6.86683462 11 12 C11.0052208 14.96019112 10.35177558 16.29644883 9 19 C5.62631319 15.92486954 3.49098038 12.71481144 1.25 8.75 C0.63640625 7.67234375 0.0228125 6.5946875 -0.609375 5.484375 C-1.06828125 4.66453125 -1.5271875 3.8446875 -2 3 C-1.34 2.01 -0.68 1.02 0 0 Z " fill="#39DDE3" transform="translate(266,113)"/>
<path d="M0 0 C1.05445313 0.18304688 2.10890625 0.36609375 3.1953125 0.5546875 C5.875 1.125 5.875 1.125 7.875 2.125 C7.875 3.445 7.875 4.765 7.875 6.125 C1.50471909 6.35996938 -4.03759093 6.11724297 -10.125 4.125 C-10.455 3.465 -10.785 2.805 -11.125 2.125 C-10.125 0.125 -10.125 0.125 -8.4453125 -0.5546875 C-5.45467399 -0.96753659 -2.96791243 -0.53232827 0 0 Z " fill="#41DEE5" transform="translate(206.125,34.875)"/>
<path d="M0 0 C2.49361571 1.20381448 4.68143083 2.45428722 7 4 C7 4.66 7 5.32 7 6 C7.92619141 6.07347656 7.92619141 6.07347656 8.87109375 6.1484375 C14.73478159 6.66608422 20.27872775 7.61582123 26 9 C25.67 9.66 25.34 10.32 25 11 C20.72254046 11.07129099 17.13616082 11.07233799 13 10 C12.01 10.33 11.02 10.66 10 11 C9.01 10.67 8.02 10.34 7 10 C7 9.34 7 8.68 7 8 C6.13375 7.938125 6.13375 7.938125 5.25 7.875 C1.86687535 6.55934042 0.80777315 4.03447636 -1 1 C-0.67 0.67 -0.34 0.34 0 0 Z " fill="#40F3F2" transform="translate(182,131)"/>
<path d="M0 0 C0.33 0.66 0.66 1.32 1 2 C2.05960938 1.97679688 3.11921875 1.95359375 4.2109375 1.9296875 C5.5989513 1.91093056 6.9869727 1.89273028 8.375 1.875 C9.42300781 1.84986328 9.42300781 1.84986328 10.4921875 1.82421875 C12.32897486 1.80655733 14.16601963 1.89696739 16 2 C16.66 2.66 17.32 3.32 18 4 C14.33998039 7.66001961 3.50361653 6.12180135 -1.2421875 6.1328125 C-4 6 -4 6 -6 5 C-5.67 3.68 -5.34 2.36 -5 1 C-3.35 0.67 -1.7 0.34 0 0 Z " fill="#30EAF3" transform="translate(89,103)"/>
<path d="M0 0 C1.32 0.66 2.64 1.32 4 2 C4 2.99 4 3.98 4 5 C4.85851562 5.37318359 4.85851562 5.37318359 5.734375 5.75390625 C8.33500678 7.18425373 10.14746599 8.84664674 12.25 10.9375 C12.95640625 11.62714844 13.6628125 12.31679687 14.390625 13.02734375 C16 15 16 15 16 18 C8.94730406 14.67739658 3.33416606 9.60087436 -2 4 C-1.34 2.68 -0.68 1.36 0 0 Z " fill="#47EDE9" transform="translate(200,98)"/>
<path d="M0 0 C0.80566406 0.00322266 1.61132812 0.00644531 2.44140625 0.00976562 C3.70404297 0.02233398 3.70404297 0.02233398 4.9921875 0.03515625 C5.84167969 0.03966797 6.69117188 0.04417969 7.56640625 0.04882812 C9.66669659 0.06062751 11.7669508 0.07856319 13.8671875 0.09765625 C13.8671875 0.75765625 13.8671875 1.41765625 13.8671875 2.09765625 C16.8371875 2.59265625 16.8371875 2.59265625 19.8671875 3.09765625 C19.8671875 3.42765625 19.8671875 3.75765625 19.8671875 4.09765625 C11.6171875 4.09765625 3.3671875 4.09765625 -5.1328125 4.09765625 C-5.4628125 3.10765625 -5.7928125 2.11765625 -6.1328125 1.09765625 C-3.8362755 -0.05061225 -2.54968083 -0.0179555 0 0 Z " fill="#37E3E9" transform="translate(132.1328125,157.90234375)"/>
<path d="M0 0 C2.10783501 0.76074502 4.21116757 1.53397356 6.3125 2.3125 C7.48425781 2.74175781 8.65601563 3.17101563 9.86328125 3.61328125 C14.26059655 5.55729984 14.26059655 5.55729984 16 8 C16 8.99 16 9.98 16 11 C12.62073443 12.12642186 12.27071722 11.96344705 9.20703125 10.56640625 C8.49482422 10.24736328 7.78261719 9.92832031 7.04882812 9.59960938 C6.31083984 9.25736328 5.57285156 8.91511719 4.8125 8.5625 C4.06291016 8.22412109 3.31332031 7.88574219 2.54101562 7.53710938 C0.69007302 6.7000589 -1.15549666 5.85114596 -3 5 C-2.360625 4.855625 -1.72125 4.71125 -1.0625 4.5625 C0.97545146 4.18992819 0.97545146 4.18992819 2 3 C1.34 2.67 0.68 2.34 0 2 C0 1.34 0 0.68 0 0 Z " fill="#64DEDC" transform="translate(240,44)"/>
<path d="M0 0 C1.71121754 4.52150975 2.35223612 8.55617153 2.625 13.375 C2.69976562 14.62023437 2.77453125 15.86546875 2.8515625 17.1484375 C2.90054687 18.08945313 2.94953125 19.03046875 3 20 C-1.03770752 17.81722221 -1.88423202 15.21660094 -3.12890625 11.04882812 C-3.43634766 9.9418457 -3.43634766 9.9418457 -3.75 8.8125 C-4.08064453 7.68811523 -4.08064453 7.68811523 -4.41796875 6.54101562 C-4.95805003 4.69769474 -5.48074979 2.84929686 -6 1 C-4 0 -4 0 0 0 Z " fill="#6AECE4" transform="translate(288,148)"/>
<path d="M0 0 C3.34264587 0.26517859 6.66996991 0.60687145 10 1 C10.845625 1.09925781 11.69125 1.19851562 12.5625 1.30078125 C14.86845878 1.67625809 16.85581093 2.06873144 19 3 C20.9375 6 20.9375 6 22 9 C22.66 9.66 23.32 10.32 24 11 C25.06182688 12.95747926 26.07725377 14.94037926 27.0625 16.9375 C27.58972656 17.99839844 28.11695313 19.05929688 28.66015625 20.15234375 C30 23 30 23 31 26 C26.71 25.01 22.42 24.02 18 23 C18 22.67 18 22.34 18 22 C20.97 22.33 23.94 22.66 27 23 C26.06506561 21.10290012 25.12693704 19.20737422 24.1875 17.3125 C23.66542969 16.25675781 23.14335937 15.20101562 22.60546875 14.11328125 C21.81076172 12.57220703 21.81076172 12.57220703 21 11 C20.62875 10.1028125 20.2575 9.205625 19.875 8.28125 C16.93429872 4.70339678 13.20029344 4.22251701 8.8125 3.1875 C7.96751953 2.97158203 7.12253906 2.75566406 6.25195312 2.53320312 C4.17237375 2.0044965 2.08669821 1.49987164 0 1 C0 0.67 0 0.34 0 0 Z " fill="#5CE0DC" transform="translate(218,146)"/>
<path d="M0 0 C3.96 0 7.92 0 12 0 C12.33 1.65 12.66 3.3 13 5 C6.07 5 -0.86 5 -8 5 C-8 4.34 -8 3.68 -8 3 C-6.865625 2.87625 -5.73125 2.7525 -4.5625 2.625 C-3.386875 2.41875 -2.21125 2.2125 -1 2 C-0.67 1.34 -0.34 0.68 0 0 Z " fill="#6EF2EE" transform="translate(104,157)"/>
<path d="M0 0 C3.82909291 1.47336836 5.21383678 3.43591628 7.25 6.9375 C7.77078125 7.81277344 8.2915625 8.68804687 8.828125 9.58984375 C10 12 10 12 10 15 C8.02 15 6.04 15 4 15 C3.18501438 13.3970947 2.37310073 11.79262722 1.5625 10.1875 C1.11003906 9.29417969 0.65757812 8.40085938 0.19140625 7.48046875 C-1 5 -1 5 -2 2 C-1.34 2 -0.68 2 0 2 C0 1.34 0 0.68 0 0 Z " fill="#72F0E5" transform="translate(226,205)"/>
<path d="M0 0 C0.77988281 -0.01417969 1.55976563 -0.02835938 2.36328125 -0.04296875 C4.8907668 0.20765587 6.50468031 0.92376228 8.6875 2.1875 C8.6875 3.1775 8.6875 4.1675 8.6875 5.1875 C1.4275 5.1875 -5.8325 5.1875 -13.3125 5.1875 C-12.9825 4.5275 -12.6525 3.8675 -12.3125 3.1875 C-9.99043475 2.48258733 -7.65656932 1.81537571 -5.3125 1.1875 C-3.74222683 -0.38277317 -2.16980053 0.01775614 0 0 Z " fill="#7CE7E4" transform="translate(173.3125,159.8125)"/>
<path d="M0 0 C0.99 0 1.98 0 3 0 C2.8984375 2.3203125 2.8984375 2.3203125 2 5 C-0.8359375 6.6171875 -0.8359375 6.6171875 -4.375 7.875 C-6.11910156 8.52082031 -6.11910156 8.52082031 -7.8984375 9.1796875 C-11 10 -11 10 -14 9 C-12.68 8.67 -11.36 8.34 -10 8 C-10 7.34 -10 6.68 -10 6 C-14.455 6.495 -14.455 6.495 -19 7 C-19 6.34 -19 5.68 -19 5 C-18.20335937 4.87882813 -17.40671875 4.75765625 -16.5859375 4.6328125 C-7.66849779 3.81181935 -7.66849779 3.81181935 0 0 Z " fill="#65E4DD" transform="translate(278,143)"/>
<path d="M0 0 C0.33 0 0.66 0 1 0 C1 1.65 1 3.3 1 5 C1.66 5.33 2.32 5.66 3 6 C5 7 5 7 6.1875 9.8125 C6.96421451 12.85961076 7.10096399 14.13749363 6 17 C2.62537285 16.45276317 0.91765 15.9451 -2 14 C-4.33199388 13.92094936 -6.66832622 13.91201231 -9 14 C-9 13.34 -9 12.68 -9 12 C-3.555 11.505 -3.555 11.505 2 11 C2 10.34 2 9.68 2 9 C1.01 9 0.02 9 -1 9 C-0.67 6.03 -0.34 3.06 0 0 Z " fill="#71F4EA" transform="translate(290,172)"/>
<path d="M0 0 C4.92908146 3.87792288 8.5423711 7.76116833 12 13 C11.67 13.66 11.34 14.32 11 15 C7 15 7 15 5.11328125 13.35546875 C4.51902344 12.64003906 3.92476562 11.92460938 3.3125 11.1875 C2.40951172 10.12595703 2.40951172 10.12595703 1.48828125 9.04296875 C0 7 0 7 -1 4 C-0.34 4 0.32 4 1 4 C0.67 2.68 0.34 1.36 0 0 Z " fill="#71ECE3" transform="translate(249,92)"/>
<path d="M0 0 C6.66500865 -0.59244521 11.86952975 1.51677155 18 4 C18 4.66 18 5.32 18 6 C18.66 6.33 19.32 6.66 20 7 C17.79072956 6.7155186 15.58261021 6.4220904 13.375 6.125 C12.14523438 5.96257812 10.91546875 5.80015625 9.6484375 5.6328125 C6.26038483 5.04516311 3.22301349 4.18011878 0 3 C0 2.01 0 1.02 0 0 Z " fill="#2DE0E9" transform="translate(137,110)"/>
<path d="M0 0 C5.27315333 0.4452885 10.01770224 1.08373163 15 3 C14.01 3.33 13.02 3.66 12 4 C12 4.99 12 5.98 12 7 C4.32537035 6.06024943 -3.33677447 5.0277503 -11 4 C-11 3.67 -11 3.34 -11 3 C0.52164009 2.81548975 0.52164009 2.81548975 6 4 C6 3.34 6 2.68 6 2 C3.03 1.505 3.03 1.505 0 1 C0 0.67 0 0.34 0 0 Z " fill="#50DFE0" transform="translate(159,81)"/>
<path d="M0 0 C-0.33 0.99 -0.66 1.98 -1 3 C-8.68483539 3.67453101 -16.28410183 4.1567564 -24 4 C-23.67 3.01 -23.34 2.02 -23 1 C-15.31516461 0.32546899 -7.71589817 -0.1567564 0 0 Z " fill="#2AE7F0" transform="translate(108,132)"/>
<path d="M0 0 C0.66 0 1.32 0 2 0 C2.28875 1.134375 2.5775 2.26875 2.875 3.4375 C3.24625 4.613125 3.6175 5.78875 4 7 C4.66 7.33 5.32 7.66 6 8 C6.33 8.99 6.66 9.98 7 11 C8.49985609 12.66710346 8.49985609 12.66710346 10 14 C7.625 13.6875 7.625 13.6875 5 13 C4.34 12.01 3.68 11.02 3 10 C0.43717258 9.27034634 0.43717258 9.27034634 -2 9 C-2.66 6.69 -3.32 4.38 -4 2 C-3.34 1.67 -2.68 1.34 -2 1 C-1.34 1.33 -0.68 1.66 0 2 C0 1.34 0 0.68 0 0 Z " fill="#5CE6DC" transform="translate(214,179)"/>
<path d="M0 0 C3.42627018 1.39669612 4.77412688 2.78919149 6.5625 6 C8.2572434 9.02275544 8.9974895 9.99832634 12 12 C10.1875 12.625 10.1875 12.625 8 13 C7.01 12.34 6.02 11.68 5 11 C5 10.34 5 9.68 5 9 C2.03 8.505 2.03 8.505 -1 8 C-1.625 5.125 -1.625 5.125 -2 2 C-1.34 1.34 -0.68 0.68 0 0 Z " fill="#5EEAE2" transform="translate(231,135)"/>
<path d="M0 0 C4.77670092 2.39940764 8.86849553 4.72325314 12.625 8.5625 C19.04979595 14.52003806 28.68563109 15.3784596 37 17 C37 17.33 37 17.66 37 18 C17.88927336 16.61937716 17.88927336 16.61937716 13.375 12.75 C12.59125 11.8425 11.8075 10.935 11 10 C7.46470418 7.14510833 3.77978305 4.51985537 0 2 C0 1.34 0 0.68 0 0 Z " fill="#3ED2D4" transform="translate(173,122)"/>
<path d="M0 0 C3.3 0 6.6 0 10 0 C10.33 1.32 10.66 2.64 11 4 C6.53763531 5.80619523 3.68965706 6.11658501 -1 5 C-0.67 3.35 -0.34 1.7 0 0 Z " fill="#5FE3EB" transform="translate(119,79)"/>
<path d="M0 0 C9.73991324 -0.6283815 18.60720547 1.70807628 28 4 C28 4.66 28 5.32 28 6 C18.99160341 4.37772519 9.99531146 2.69296954 1 1 C1 1.99 1 2.98 1 4 C4.63 4.33 8.26 4.66 12 5 C12 5.33 12 5.66 12 6 C6.78020872 6.1799928 2.92737019 5.97094808 -2 4 C-1.34 2.68 -0.68 1.36 0 0 Z " fill="#39D1D9" transform="translate(128,174)"/>
<path d="M0 0 C3.13328122 1.04442707 4.04196922 1.44604681 6 4 C6.74386068 6.30988315 7.42190703 8.64315944 8 11 C7.34 11 6.68 11 6 11 C6 11.66 6 12.32 6 13 C4.68 12.67 3.36 12.34 2 12 C1.34 8.04 0.68 4.08 0 0 Z " fill="#5EF0E6" transform="translate(208,168)"/>
<path d="M0 0 C5.52677733 -0.19392201 9.75614911 0.2520497 15 2 C15.33 3.32 15.66 4.64 16 6 C14.35 6 12.7 6 11 6 C11 5.34 11 4.68 11 4 C7.37 3.67 3.74 3.34 0 3 C0 2.01 0 1.02 0 0 Z " fill="#26E6EF" transform="translate(129,175)"/>
<path d="M0 0 C3.96 0 7.92 0 12 0 C12 0.33 12 0.66 12 1 C8.37 1 4.74 1 1 1 C1 1.66 1 2.32 1 3 C6.445 2.505 6.445 2.505 12 2 C11.67 2.66 11.34 3.32 11 4 C13.97 4.495 13.97 4.495 17 5 C17.33 6.98 17.66 8.96 18 11 C17.80148438 10.36320313 17.60296875 9.72640625 17.3984375 9.0703125 C16.12336715 6.69156506 16.12336715 6.69156506 13.1015625 6.2421875 C11.95429688 6.12101563 10.80703125 5.99984375 9.625 5.875 C5.63721504 5.43391318 2.47411707 5.07077914 -1 3 C-0.67 2.01 -0.34 1.02 0 0 Z " fill="#3BDAE0" transform="translate(191,162)"/>
<path d="M0 0 C4.02118642 2.06493357 6.01334998 3.92213943 8 8 C8 8.66 8 9.32 8 10 C7.01 10.33 6.02 10.66 5 11 C2.03 8.36 -0.94 5.72 -4 3 C-1 3 -1 3 1 4 C0.67 2.68 0.34 1.36 0 0 Z " fill="#5FEFE5" transform="translate(242,86)"/>
<path d="M0 0 C0.97582031 0.10183594 1.95164063 0.20367187 2.95703125 0.30859375 C3.69308594 0.39238281 4.42914063 0.47617188 5.1875 0.5625 C5.5175 2.2125 5.8475 3.8625 6.1875 5.5625 C0.37483381 4.77700457 -5.18127624 3.15567541 -10.8125 1.5625 C-10.8125 1.2325 -10.8125 0.9025 -10.8125 0.5625 C-7.01982808 -0.3735342 -3.87575435 -0.42026252 0 0 Z " fill="#51F0E4" transform="translate(210.8125,189.4375)"/>
<path d="M0 0 C7.75 0.875 7.75 0.875 10 2 C10.33 1.34 10.66 0.68 11 0 C11 0.66 11 1.32 11 2 C13.31 2.33 15.62 2.66 18 3 C17.67 3.66 17.34 4.32 17 5 C14.75006641 5.02707139 12.50003905 5.04642829 10.25 5.0625 C8.99703125 5.07410156 7.7440625 5.08570313 6.453125 5.09765625 C3.71463499 5.02021027 1.58119707 4.82780815 -1 4 C-0.67 2.68 -0.34 1.36 0 0 Z " fill="#48F1ED" transform="translate(225,167)"/>
<path d="M0 0 C6.93 0.495 6.93 0.495 14 1 C14 1.66 14 2.32 14 3 C10.37 2.67 6.74 2.34 3 2 C3 2.66 3 3.32 3 4 C3.66 4 4.32 4 5 4 C5 4.66 5 5.32 5 6 C3.35 6 1.7 6 0 6 C0.33 7.32 0.66 8.64 1 10 C-1 8.1875 -1 8.1875 -3 6 C-3 5.01 -3 4.02 -3 3 C-0.525 3.495 -0.525 3.495 2 4 C2 3.01 2 2.02 2 1 C1.34 0.67 0.68 0.34 0 0 Z " fill="#53DBD6" transform="translate(244,147)"/>
<path d="M0 0 C4.68149446 2.08066421 6.24452752 4.7454629 8.3984375 9.16015625 C9 11 9 11 8 13 C7.01 13 6.02 13 5 13 C3.02 9.04 1.04 5.08 -1 1 C-0.67 0.67 -0.34 0.34 0 0 Z " fill="#67F0E6" transform="translate(241,154)"/>
<path d="M0 0 C3.96060927 0.27004154 5.53714607 0.48571786 8.25 3.5 C8.8275 4.325 9.405 5.15 10 6 C10.66 6.33 11.32 6.66 12 7 C12 8.32 12 9.64 12 11 C10.68 10.34 9.36 9.68 8 9 C8 8.34 8 7.68 8 7 C7.13375 6.938125 7.13375 6.938125 6.25 6.875 C2.86687535 5.55934042 1.80777315 3.03447636 0 0 Z " fill="#50F3EB" transform="translate(189,141)"/>
<path d="M0 0 C3.63396553 1.00943487 4.93391767 1.91605758 7.3125 4.9375 C9 8 9 8 9 11 C7.68 11.33 6.36 11.66 5 12 C3.5393715 9.35261084 3 8.10551666 3 5 C2.01 4.67 1.02 4.34 0 4 C-0.33 3.01 -0.66 2.02 -1 1 C-0.67 0.67 -0.34 0.34 0 0 Z " fill="#7BEFE8" transform="translate(218,117)"/>
<path d="M0 0 C3.87791279 0.56181775 6.40915326 1.65374504 9.625 3.875 C10.38039062 4.38804687 11.13578125 4.90109375 11.9140625 5.4296875 C13.78849933 6.84078039 15.3958478 8.2936725 17 10 C16.67 10.66 16.34 11.32 16 12 C15.34 11.34 14.68 10.68 14 10 C12.5459375 10.0309375 12.5459375 10.0309375 11.0625 10.0625 C8 10 8 10 6.125 8.5 C5.75375 8.005 5.3825 7.51 5 7 C6.32 7 7.64 7 9 7 C6.45543849 4.03134491 3.51005335 2.6380249 0 1 C0 0.67 0 0.34 0 0 Z " fill="#4AD9DF" transform="translate(163,197)"/>
<path d="M0 0 C3.96 0 7.92 0 12 0 C12 0.66 12 1.32 12 2 C11.34 2 10.68 2 10 2 C10 2.66 10 3.32 10 4 C3.375 5.25 3.375 5.25 0 3 C0 2.01 0 1.02 0 0 Z " fill="#33EBF2" transform="translate(76,157)"/>
<path d="M0 0 C6.1105424 -0.11269443 11.95170514 0.10395632 18 1 C18 1.66 18 2.32 18 3 C12.06 3 6.12 3 0 3 C0 2.01 0 1.02 0 0 Z " fill="#37EBF0" transform="translate(158,56)"/>
<path d="M0 0 C6.14154225 0.58490879 12.00679849 1.54066252 18 3 C17.67 3.66 17.34 4.32 17 5 C10.81056603 5.33157682 6.66033778 4.58190846 1 2 C0.67 1.34 0.34 0.68 0 0 Z " fill="#36EBEC" transform="translate(190,137)"/>
<path d="M0 0 C0 1.32 0 2.64 0 4 C0.66 4.33 1.32 4.66 2 5 C0.35 6.65 -1.3 8.3 -3 10 C-4.625 7.75 -4.625 7.75 -6 5 C-5.3125 2.75 -5.3125 2.75 -4 1 C-2 0 -2 0 0 0 Z " fill="#70F9EB" transform="translate(272,198)"/>
<path d="M0 0 C8.64150758 0.21902439 16.0334066 2.88912563 24 6 C20.21745018 7.26084994 18.94100994 6.4833666 15.25 5.125 C10.76844573 3.54775396 6.7216707 2.42924279 2 2 C2 2.66 2 3.32 2 4 C1.01 3.67 0.02 3.34 -1 3 C-0.67 2.01 -0.34 1.02 0 0 Z " fill="#3DD0D9" transform="translate(135,108)"/>
<path d="M0 0 C5.63281599 -0.2396943 10.54538831 0.61470179 16 2 C15.67 2.99 15.34 3.98 15 5 C13.24970238 4.68917128 11.49977306 4.37626821 9.75 4.0625 C8.28820312 3.80146484 8.28820312 3.80146484 6.796875 3.53515625 C4.50278205 3.09620271 2.25708029 2.59651408 0 2 C0 1.34 0 0.68 0 0 Z " fill="#45F0EA" transform="translate(219,144)"/>
<path d="M0 0 C1.98 0 3.96 0 6 0 C6 0.66 6 1.32 6 2 C8.97 2.495 8.97 2.495 12 3 C12 3.66 12 4.32 12 5 C7.71 4.67 3.42 4.34 -1 4 C-0.67 2.68 -0.34 1.36 0 0 Z " fill="#3EE7EB" transform="translate(153,80)"/>
<path d="M0 0 C0 1.32 0 2.64 0 4 C-2.97 4 -5.94 4 -9 4 C-8.67 3.01 -8.34 2.02 -8 1 C-8.33 0.34 -8.66 -0.32 -9 -1 C-5.79937313 -2.60031344 -3.27728194 -1.03173691 0 0 Z " fill="#6AE8E7" transform="translate(214,37)"/>
<path d="M0 0 C1.9375 0.6875 1.9375 0.6875 4 2 C4.75 4.625 4.75 4.625 5 7 C3.02 7.66 1.04 8.32 -1 9 C-2.0326802 6.21176345 -2.04509293 5.1322726 -1.0625 2.25 C-0.711875 1.5075 -0.36125 0.765 0 0 Z " fill="#5AE7D8" transform="translate(271,186)"/>
<path d="M0 0 C1.65 0 3.3 0 5 0 C4.01 0.33 3.02 0.66 2 1 C2 1.66 2 2.32 2 3 C5.96 3 9.92 3 14 3 C14 3.66 14 4.32 14 5 C11.87506859 5.02693575 9.75004088 5.04636628 7.625 5.0625 C6.44164063 5.07410156 5.25828125 5.08570312 4.0390625 5.09765625 C1 5 1 5 -1 4 C-0.67 2.68 -0.34 1.36 0 0 Z " fill="#39D3DC" transform="translate(84,104)"/>
<path d="M0 0 C1.43861294 0.08746284 2.87597508 0.19565348 4.3125 0.3125 C5.11300781 0.37050781 5.91351563 0.42851563 6.73828125 0.48828125 C9.41109031 1.09301007 10.38866591 1.80462248 12 4 C12 4.99 12 5.98 12 7 C11.01 7.33 10.02 7.66 9 8 C8.62875 7.38125 8.2575 6.7625 7.875 6.125 C5.51377094 3.4489404 3.39868348 2.9063156 0 2 C0 1.34 0 0.68 0 0 Z " fill="#66F5EA" transform="translate(244,48)"/>
<path d="M0 0 C3.46941546 0.45822468 6.67395049 0.89131683 10 2 C10 2.66 10 3.32 10 4 C8.375 5.125 8.375 5.125 6 6 C2.75 5.125 2.75 5.125 0 4 C0 2.68 0 1.36 0 0 Z " fill="#33E1EA" transform="translate(224,41)"/>
<path d="M0 0 C2.60538222 0.94083247 4.66833595 1.70387138 6.75 3.5625 C10.2238465 5.78190193 13.95185104 5.74915316 18 6 C17.01 7.485 17.01 7.485 16 9 C10.03139268 8.28945151 5.67487715 6.89525572 1.625 2.3125 C0.820625 1.1678125 0.820625 1.1678125 0 0 Z " fill="#52DBD7" transform="translate(235,220)"/>
<path d="M0 0 C-0.33 1.32 -0.66 2.64 -1 4 C-5.75 5.125 -5.75 5.125 -8 4 C-7.625 2.0625 -7.625 2.0625 -7 0 C-4.3333581 -1.33332095 -2.83319697 -0.67102033 0 0 Z " fill="#67E7EA" transform="translate(73,135)"/>
<path d="M0 0 C-0.165 0.804375 -0.33 1.60875 -0.5 2.4375 C-1.19836679 5.3943237 -1.19836679 5.3943237 0 8 C-0.99 9.485 -0.99 9.485 -2 11 C-3.32 7.7 -4.64 4.4 -6 1 C-4 0 -4 0 0 0 Z " fill="#5FEAE1" transform="translate(288,148)"/>
<path d="M0 0 C2 0 2 0 4.125 2 C4.74375 2.66 5.3625 3.32 6 4 C6.33 2.68 6.66 1.36 7 0 C7.86380259 1.28524261 8.71580369 2.57842419 9.5625 3.875 C10.27599609 4.95394531 10.27599609 4.95394531 11.00390625 6.0546875 C11.33261719 6.69664062 11.66132813 7.33859375 12 8 C11.67 8.66 11.34 9.32 11 10 C9.68 8.68 8.36 7.36 7 6 C6.34 6.66 5.68 7.32 5 8 C4.16382818 6.8562364 3.33113541 5.70992861 2.5 4.5625 C2.0359375 3.92441406 1.571875 3.28632813 1.09375 2.62890625 C0 1 0 1 0 0 Z " fill="#56DEDA" transform="translate(195,148)"/>
<path d="M0 0 C1.05960938 0.00676758 1.05960938 0.00676758 2.140625 0.01367188 C3.88545275 0.02546125 5.630237 0.04339676 7.375 0.0625 C7.375 0.7225 7.375 1.3825 7.375 2.0625 C0.445 1.5675 0.445 1.5675 -6.625 1.0625 C-6.625 2.0525 -6.625 3.0425 -6.625 4.0625 C-5.635 4.3925 -4.645 4.7225 -3.625 5.0625 C-4.615 5.3925 -5.605 5.7225 -6.625 6.0625 C-7.615 5.4025 -8.605 4.7425 -9.625 4.0625 C-9.625 3.0725 -9.625 2.0825 -9.625 1.0625 C-6.55966836 -0.47016582 -3.35745728 -0.04026471 0 0 Z " fill="#3ECFD7" transform="translate(82.625,155.9375)"/>
<path d="M0 0 C1.32 0.66 2.64 1.32 4 2 C3.01 2.33 2.02 2.66 1 3 C1 3.66 1 4.32 1 5 C1.66 5 2.32 5 3 5 C4.5078125 6.75 4.5078125 6.75 6.125 9 C6.66382813 9.7425 7.20265625 10.485 7.7578125 11.25 C8.16773438 11.8275 8.57765625 12.405 9 13 C5.78475695 11.59155282 3.67816132 9.89655214 1.25 7.375 C0.63640625 6.74335937 0.0228125 6.11171875 -0.609375 5.4609375 C-1.29773438 4.73777344 -1.29773438 4.73777344 -2 4 C-1.34 2.68 -0.68 1.36 0 0 Z " fill="#3ED7DE" transform="translate(200,98)"/>
<path d="M0 0 C2.4375 0.75 2.4375 0.75 5 2 C5.8125 4.125 5.8125 4.125 6 6 C3 7 3 7 -0.1875 5.5625 C-1.115625 5.046875 -2.04375 4.53125 -3 4 C-2.01 3.67 -1.02 3.34 0 3 C0 2.01 0 1.02 0 0 Z " fill="#7FE9E4" transform="translate(187,90)"/>
<path d="M0 0 C3.08494591 1.0283153 4.08268479 1.47262996 6 4 C6.6875 7.1875 6.6875 7.1875 7 10 C5.1875 9.9375 5.1875 9.9375 3 9 C0 3.10714286 0 3.10714286 0 0 Z " fill="#5DFAEC" transform="translate(215,188)"/>
<path d="M0 0 C-0.1875 2.375 -0.1875 2.375 -1 5 C-3.375 6.375 -3.375 6.375 -6 7 C-6.99 6.67 -7.98 6.34 -9 6 C-8 3 -8 3 -5.625 1.3125 C-3 0 -3 0 0 0 Z " fill="#62F6E7" transform="translate(281,143)"/>
<path d="M0 0 C0.80824219 0.10183594 1.61648438 0.20367187 2.44921875 0.30859375 C3.06410156 0.39238281 3.67898438 0.47617188 4.3125 0.5625 C3.9825 1.2225 3.6525 1.8825 3.3125 2.5625 C0.80859375 2.9765625 0.80859375 2.9765625 -2.25 3.1875 C-3.26191406 3.26226562 -4.27382813 3.33703125 -5.31640625 3.4140625 C-6.09886719 3.46304688 -6.88132812 3.51203125 -7.6875 3.5625 C-7.6875 2.5725 -7.6875 1.5825 -7.6875 0.5625 C-4.59271121 -0.46909626 -3.16118607 -0.41232862 0 0 Z " fill="#52F5EA" transform="translate(286.6875,181.4375)"/>
<path d="M0 0 C7.72422049 0.66257422 15.34800303 1.76464626 23 3 C23 3.66 23 4.32 23 5 C20.10304831 4.71722382 17.2077705 4.42412587 14.3125 4.125 C13.49587891 4.04636719 12.67925781 3.96773437 11.83789062 3.88671875 C7.57371628 3.43785829 3.91062546 2.89557813 0 1 C0 0.67 0 0.34 0 0 Z " fill="#46D8D9" transform="translate(212,164)"/>
<path d="M0 0 C1.45903258 0.30921884 2.91720722 0.62248799 4.375 0.9375 C5.18710938 1.11152344 5.99921875 1.28554687 6.8359375 1.46484375 C9 2 9 2 11 3 C10.67 3.99 10.34 4.98 10 6 C8.35 6 6.7 6 5 6 C5 5.34 5 4.68 5 4 C4.360625 3.896875 3.72125 3.79375 3.0625 3.6875 C2.381875 3.460625 1.70125 3.23375 1 3 C0.67 2.01 0.34 1.02 0 0 Z " fill="#63F3E7" transform="translate(177,87)"/>
<path d="M0 0 C0.99 0.99 1.98 1.98 3 3 C0.375 6.875 0.375 6.875 -3 8 C-3.66 7.01 -4.32 6.02 -5 5 C-4.34 5 -3.68 5 -3 5 C-2.5359375 4.0409375 -2.5359375 4.0409375 -2.0625 3.0625 C-1 1 -1 1 0 0 Z " fill="#65F6E8" transform="translate(287,134)"/>
<path d="M0 0 C0 1.32 0 2.64 0 4 C-3.375 4.1875 -3.375 4.1875 -7 4 C-7.66 3.01 -8.32 2.02 -9 1 C-5.64919071 -1.10976881 -3.77897651 -1.0497157 0 0 Z " fill="#79E8E3" transform="translate(194,60)"/>
<path d="M0 0 C1.37562854 1.28965176 2.70766393 2.62689293 4 4 C4 4.66 4 5.32 4 6 C-0.29 5.01 -4.58 4.02 -9 3 C-9 2.67 -9 2.34 -9 2 C-6.03 2.33 -3.06 2.66 0 3 C0 2.01 0 1.02 0 0 Z " fill="#49D9D4" transform="translate(245,166)"/>
<path d="M0 0 C2.05078125 0.03255208 4.1015625 0.06510417 6.15234375 0.09765625 C6.15234375 0.42765625 6.15234375 0.75765625 6.15234375 1.09765625 C5.03859375 1.28328125 5.03859375 1.28328125 3.90234375 1.47265625 C1.3329256 2.05661492 -0.5566456 2.83365037 -2.84765625 4.09765625 C-5.5564496 5.45205293 -7.85698893 5.16267076 -10.84765625 5.09765625 C-10.51765625 4.43765625 -10.18765625 3.77765625 -9.84765625 3.09765625 C-7.525591 2.39274358 -5.19172557 1.72553196 -2.84765625 1.09765625 C-1.84765625 0.09765625 -1.84765625 0.09765625 0 0 Z " fill="#65E4E2" transform="translate(170.84765625,159.90234375)"/>
<path d="M0 0 C3 2 3 2 3.9375 4.875 C4 8 4 8 2.375 10.3125 C-0.1657085 12.11774025 -1.92900316 12.65877813 -5 13 C-1.25 9.125 -1.25 9.125 1 8 C0.67 5.36 0.34 2.72 0 0 Z " fill="#4FDDD6" transform="translate(276,134)"/>
<path d="M0 0 C0.99 0.33 1.98 0.66 3 1 C2.8125 3.3125 2.8125 3.3125 2 6 C-0.5625 7.8125 -0.5625 7.8125 -3 9 C-2.30058404 5.85262818 -1.23921302 2.97411124 0 0 Z " fill="#76EEE4" transform="translate(277,189)"/>
<path d="M0 0 C3.63 0.33 7.26 0.66 11 1 C11 1.99 11 2.98 11 4 C7.7 3.67 4.4 3.34 1 3 C0.67 2.01 0.34 1.02 0 0 Z " fill="#75EFE6" transform="translate(114,106)"/>
<path d="M0 0 C2.31 0.33 4.62 0.66 7 1 C7 1.66 7 2.32 7 3 C6.01 3 5.02 3 4 3 C4.99 4.98 5.98 6.96 7 9 C4 8 4 8 2.83203125 6.15234375 C2.49558594 5.42144531 2.15914062 4.69054687 1.8125 3.9375 C1.46832031 3.20402344 1.12414062 2.47054687 0.76953125 1.71484375 C0.51558594 1.14894531 0.26164063 0.58304688 0 0 Z " fill="#59E3D7" transform="translate(221,196)"/>
<path d="M0 0 C4.0369867 1.79421631 6.64480474 3.20551875 9 7 C5.2241456 6.47557578 2.77627845 5.67345333 0 3 C0 2.01 0 1.02 0 0 Z " fill="#3FEFEB" transform="translate(173,124)"/>
<path d="M0 0 C4.875 4.625 4.875 4.625 6 8 C4.35 8.33 2.7 8.66 1 9 C0.67 6.03 0.34 3.06 0 0 Z " fill="#89EFEA" transform="translate(255,98)"/>
<path d="M0 0 C4.875 2.75 4.875 2.75 6 5 C4.02 5.66 2.04 6.32 0 7 C-1.32 5.35 -2.64 3.7 -4 2 C-1.525 2.99 -1.525 2.99 1 4 C0.67 2.68 0.34 1.36 0 0 Z " fill="#6BE7E1" transform="translate(242,86)"/>
<path d="M0 0 C0.66 0 1.32 0 2 0 C3.7449828 1.96869854 5.38101762 3.93440179 7 6 C7.61875 6.721875 8.2375 7.44375 8.875 8.1875 C9.24625 8.785625 9.6175 9.38375 10 10 C9.67 10.99 9.34 11.98 9 13 C7.4941255 11.21326795 5.9954515 9.42046492 4.5 7.625 C3.6646875 6.62726563 2.829375 5.62953125 1.96875 4.6015625 C0 2 0 2 0 0 Z " fill="#60E6DB" transform="translate(255,181)"/>
<path d="M0 0 C5.75 1.75 5.75 1.75 8 4 C7.01 4.495 7.01 4.495 6 5 C6.66 6.32 7.32 7.64 8 9 C6.02 8.34 4.04 7.68 2 7 C2 6.34 2 5.68 2 5 C2.66 4.67 3.32 4.34 4 4 C2.68 2.68 1.36 1.36 0 0 Z " fill="#37D5E3" transform="translate(208,65)"/>
<path d="M0 0 C0.66 0 1.32 0 2 0 C6 5.41176471 6 5.41176471 6 8 C5.34 8 4.68 8 4 8 C4 7.34 4 6.68 4 6 C3.01 6 2.02 6 1 6 C-1 4 -1 4 -2 2 C-1.34 2 -0.68 2 0 2 C0 1.34 0 0.68 0 0 Z " fill="#5CEDE2" transform="translate(249,165)"/>
<path d="M0 0 C2.97 0 5.94 0 9 0 C9 0.99 9 1.98 9 3 C6.36 3 3.72 3 1 3 C0.67 2.01 0.34 1.02 0 0 Z " fill="#7BF1EA" transform="translate(140,132)"/>
<path d="M0 0 C2.8992226 0.46761655 3.86675182 0.86675182 6 3 C6 3.99 6 4.98 6 6 C3.625 5.75 3.625 5.75 1 5 C-0.3125 2.9375 -0.3125 2.9375 -1 1 C-0.67 0.67 -0.34 0.34 0 0 Z " fill="#46EBE9" transform="translate(174,206)"/>
<path d="M0 0 C2.97 0.33 5.94 0.66 9 1 C8.67 1.99 8.34 2.98 8 4 C2.25 3.125 2.25 3.125 0 2 C0 1.34 0 0.68 0 0 Z " fill="#31E8E9" transform="translate(152,196)"/>
<path d="M0 0 C5.76044212 0.60636233 10.72014369 2.75658279 16 5 C10.53303019 6.82232327 5.06737072 3.22964312 0 1 C0 0.67 0 0.34 0 0 Z " fill="#5FE0DC" transform="translate(225,193)"/>
<path d="M0 0 C0 1.32 0 2.64 0 4 C-6.625 3.25 -6.625 3.25 -10 1 C-6.59437148 0.22157062 -3.49234244 -0.09978121 0 0 Z " fill="#5BECE8" transform="translate(210,189)"/>
<path d="M0 0 C0 1.65 0 3.3 0 5 C-0.639375 5.12375 -1.27875 5.2475 -1.9375 5.375 C-2.9584375 5.684375 -2.9584375 5.684375 -4 6 C-4.33 6.66 -4.66 7.32 -5 8 C-5.33 7.34 -5.66 6.68 -6 6 C-2.92682927 0 -2.92682927 0 0 0 Z " fill="#5FF4E8" transform="translate(214,232)"/>
<path d="M0 0 C0.33 1.32 0.66 2.64 1 4 C4.63 4.33 8.26 4.66 12 5 C12 5.33 12 5.66 12 6 C6.78020872 6.1799928 2.92737019 5.97094808 -2 4 C-1.34 2.68 -0.68 1.36 0 0 Z " fill="#46DDE9" transform="translate(128,174)"/>
<path d="M0 0 C0.99 0.33 1.98 0.66 3 1 C3 2.32 3 3.64 3 5 C0.69 5 -1.62 5 -4 5 C-4.33 4.34 -4.66 3.68 -5 3 C-4.360625 2.87625 -3.72125 2.7525 -3.0625 2.625 C-2.0415625 2.315625 -2.0415625 2.315625 -1 2 C-0.67 1.34 -0.34 0.68 0 0 Z " fill="#2EF0F3" transform="translate(206,162)"/>
<path d="M0 0 C0.99 0.33 1.98 0.66 3 1 C3.33333333 2.33333333 3.66666667 3.66666667 4 5 C4.99 5.33 5.98 5.66 7 6 C6.67 6.66 6.34 7.32 6 8 C5.01 8 4.02 8 3 8 C0 2.25 0 2.25 0 0 Z " fill="#61F8EA" transform="translate(243,159)"/>
<path d="M0 0 C3.96 0 7.92 0 12 0 C12 0.33 12 0.66 12 1 C9.36 1 6.72 1 4 1 C3.67 2.32 3.34 3.64 3 5 C2.01 4.34 1.02 3.68 0 3 C0 2.01 0 1.02 0 0 Z " fill="#27E1EA" transform="translate(76,157)"/>
<path d="M0 0 C0 0.66 0 1.32 0 2 C-3.85756507 4.15305957 -6.55129785 5.39253254 -11 5 C-11 4.34 -11 3.68 -11 3 C-9.02 3 -7.04 3 -5 3 C-5 2.34 -5 1.68 -5 1 C-3 0 -3 0 0 0 Z " fill="#69F4E8" transform="translate(268,149)"/>
<path d="M0 0 C2.64 0.33 5.28 0.66 8 1 C8.33 1.99 8.66 2.98 9 4 C5.7 3.34 2.4 2.68 -1 2 C-0.67 1.34 -0.34 0.68 0 0 Z " fill="#41EFED" transform="translate(209,141)"/>
<path d="M0 0 C2.9375 0.8125 2.9375 0.8125 6 2 C6.33 2.99 6.66 3.98 7 5 C3.31245243 4.50168276 1.39509338 3.89932357 -1 1 C-0.67 0.67 -0.34 0.34 0 0 Z " fill="#39EEEF" transform="translate(165,199)"/>
<path d="M0 0 C3.375 0.3125 3.375 0.3125 7 1 C7.66 1.99 8.32 2.98 9 4 C6.03 3.67 3.06 3.34 0 3 C0 2.01 0 1.02 0 0 Z " fill="#19C7CA" transform="translate(175,132)"/>
<path d="M0 0 C5.75 0.875 5.75 0.875 8 2 C8 2.66 8 3.32 8 4 C8.66 4.33 9.32 4.66 10 5 C7.69 4.67 5.38 4.34 3 4 C2.67 3.01 2.34 2.02 2 1 C1.34 0.67 0.68 0.34 0 0 Z " fill="#2CE9F0" transform="translate(147,112)"/>
<path d="M0 0 C0.33 0.66 0.66 1.32 1 2 C1.66 2.33 2.32 2.66 3 3 C3.33 3.99 3.66 4.98 4 6 C5.49985609 7.66710346 5.49985609 7.66710346 7 9 C4.625 8.6875 4.625 8.6875 2 8 C-0.1519437 4.77208445 -0.20086443 3.71599191 0 0 Z " fill="#52D4CE" transform="translate(217,184)"/>
<path d="M0 0 C0.66 1.32 1.32 2.64 2 4 C-1.3 3.34 -4.6 2.68 -8 2 C-8 1.67 -8 1.34 -8 1 C-5.36 0.67 -2.72 0.34 0 0 Z " fill="#42D3D0" transform="translate(232,142)"/>
<path d="M0 0 C1.98 0.66 3.96 1.32 6 2 C6 2.99 6 3.98 6 5 C6.33 5.99 6.66 6.98 7 8 C3.28631113 6.76210371 2.22645819 5.14775123 0 2 C0 1.34 0 0.68 0 0 Z " fill="#3AD7D5" transform="translate(194,140)"/>
<path d="M0 0 C2.97 0.495 2.97 0.495 6 1 C6 2.98 6 4.96 6 7 C1.125 2.25 1.125 2.25 0 0 Z " fill="#4FE2E0" transform="translate(189,141)"/>
<path d="M0 0 C3.3 0 6.6 0 10 0 C9.67 0.99 9.34 1.98 9 3 C7.35 3 5.7 3 4 3 C4 2.34 4 1.68 4 1 C2.68 0.67 1.36 0.34 0 0 Z " fill="#3FEBEF" transform="translate(98,132)"/>
<path d="M0 0 C1.98 0.66 3.96 1.32 6 2 C6 2.99 6 3.98 6 5 C4.68 5 3.36 5 2 5 C2 4.34 2 3.68 2 3 C1.34 3 0.68 3 0 3 C0 2.01 0 1.02 0 0 Z " fill="#36EAEC" transform="translate(158,116)"/>
<path d="M0 0 C0.99 0 1.98 0 3 0 C3 0.66 3 1.32 3 2 C3.639375 2.28875 4.27875 2.5775 4.9375 2.875 C7 4 7 4 8 6 C6.35 5.67 4.7 5.34 3 5 C2.67 4.01 2.34 3.02 2 2 C1.34 2 0.68 2 0 2 C0 1.34 0 0.68 0 0 Z " fill="#2EE9ED" transform="translate(201,101)"/>
<path d="M0 0 C0 0.99 0 1.98 0 3 C-3 4 -3 4 -6 3 C-6 2.01 -6 1.02 -6 0 C-3.50907189 -1.24546405 -2.58919267 -0.7767578 0 0 Z " fill="#66F6EC" transform="translate(249,202)"/>
<path d="M0 0 C2.97 0 5.94 0 9 0 C8.67 0.99 8.34 1.98 8 3 C5.9375 3.6875 5.9375 3.6875 4 4 C3.67 3.34 3.34 2.68 3 2 C2.01 1.34 1.02 0.68 0 0 Z " fill="#3BEFF0" transform="translate(184,185)"/>
<path d="M0 0 C1.258125 0.12375 2.51625 0.2475 3.8125 0.375 C4.87404297 0.47941406 4.87404297 0.47941406 5.95703125 0.5859375 C8 1 8 1 11 3 C11 3.66 11 4.32 11 5 C9.35 4.67 7.7 4.34 6 4 C6 3.34 6 2.68 6 2 C3.03 1.505 3.03 1.505 0 1 C0 0.67 0 0.34 0 0 Z " fill="#60EBE6" transform="translate(246,175)"/>
<path d="M0 0 C0.33 0 0.66 0 1 0 C1 1.65 1 3.3 1 5 C1.66 5.33 2.32 5.66 3 6 C3.33 6.99 3.66 7.98 4 9 C3.01 9.495 3.01 9.495 2 10 C1.01 9.67 0.02 9.34 -1 9 C-0.67 6.03 -0.34 3.06 0 0 Z " fill="#6BEADE" transform="translate(290,172)"/>
<path d="M0 0 C2.97 0 5.94 0 9 0 C9 0.99 9 1.98 9 3 C7.02 3 5.04 3 3 3 C3 2.34 3 1.68 3 1 C2.01 0.67 1.02 0.34 0 0 Z " fill="#59E7E4" transform="translate(95,157)"/>
<path d="M0 0 C2.97 0 5.94 0 9 0 C6.64031256 2.09749995 5.45383006 2.96905704 2.25 3.1875 C1.13625 3.0946875 1.13625 3.0946875 0 3 C0 2.01 0 1.02 0 0 Z " fill="#1CDFE8" transform="translate(165,133)"/>
<path d="M0 0 C2.375 -0.1875 2.375 -0.1875 5 0 C7 3 7 3 6.625 5.1875 C6.41875 5.785625 6.2125 6.38375 6 7 C3 3.25 3 3.25 3 1 C2.01 0.67 1.02 0.34 0 0 Z " fill="#2DEAEE" transform="translate(268,122)"/>
<path d="M0 0 C2.31 0.33 4.62 0.66 7 1 C6.67 1.66 6.34 2.32 6 3 C3.36 3 0.72 3 -2 3 C-1.34 2.67 -0.68 2.34 0 2 C0 1.34 0 0.68 0 0 Z " fill="#48ECEE" transform="translate(100,105)"/>
<path d="M0 0 C3 1 3 1 3.984375 2.7421875 C4.23703125 3.44601563 4.4896875 4.14984375 4.75 4.875 C5.01296875 5.57367188 5.2759375 6.27234375 5.546875 6.9921875 C6 9 6 9 5 12 C4.16180842 10.37750059 3.3295884 8.75191503 2.5 7.125 C2.0359375 6.22007813 1.571875 5.31515625 1.09375 4.3828125 C0 2 0 2 0 0 Z " fill="#70E3DB" transform="translate(282,83)"/>
<path d="M0 0 C2.475 0.495 2.475 0.495 5 1 C5 2.65 5 4.3 5 6 C4.34 6 3.68 6 3 6 C0 1.5 0 1.5 0 0 Z " fill="#4FEFED" transform="translate(178,215)"/>
<path d="M0 0 C-0.33 0.99 -0.66 1.98 -1 3 C-3.64 3 -6.28 3 -9 3 C-6.38997624 -0.48003168 -4.1689578 -0.27793052 0 0 Z " fill="#70F3EA" transform="translate(177,161)"/>
<path d="M0 0 C1.32 0.66 2.64 1.32 4 2 C3.67 2.99 3.34 3.98 3 5 C1.35 5 -0.3 5 -2 5 C-1.34 3.35 -0.68 1.7 0 0 Z " fill="#3DE7E6" transform="translate(111,130)"/>
<path d="M0 0 C2.91517292 1.07401108 4.77810176 1.77810176 7 4 C7 4.99 7 5.98 7 7 C6.01 7.33 5.02 7.66 4 8 C4 6.35 4 4.7 4 3 C2.68 2.67 1.36 2.34 0 2 C0 1.34 0 0.68 0 0 Z " fill="#8CEEEB" transform="translate(249,48)"/>
<path d="M0 0 C1.1446875 0.495 1.1446875 0.495 2.3125 1 C4.99069135 2.17436686 4.99069135 2.17436686 8 2 C8 2.66 8 3.32 8 4 C5.6875 4.6875 5.6875 4.6875 3 5 C1.1875 3.6875 1.1875 3.6875 0 2 C0 1.34 0 0.68 0 0 Z " fill="#4ADBD6" transform="translate(195,243)"/>
<path d="M0 0 C2.64 0 5.28 0 8 0 C8.33 0.66 8.66 1.32 9 2 C2.25 3.125 2.25 3.125 0 2 C0 1.34 0 0.68 0 0 Z " fill="#59F0EB" transform="translate(243,229)"/>
<path d="M0 0 C0.99 0.33 1.98 0.66 3 1 C3.33 2.65 3.66 4.3 4 6 C3.01 6.33 2.02 6.66 1 7 C0.67 4.69 0.34 2.38 0 0 Z " fill="#61F9E9" transform="translate(222,201)"/>
<path d="M0 0 C1.65 0.33 3.3 0.66 5 1 C5 2.32 5 3.64 5 5 C2.69 4.67 0.38 4.34 -2 4 C-0.68 3.34 0.64 2.68 2 2 C1.34 1.34 0.68 0.68 0 0 Z " fill="#8BF6F0" transform="translate(112,157)"/>
<path d="M0 0 C1.32 1.32 2.64 2.64 4 4 C3.67 4.99 3.34 5.98 3 7 C1.68 5.68 0.36 4.36 -1 3 C-0.67 2.01 -0.34 1.02 0 0 Z " fill="#57F4EB" transform="translate(202,153)"/>
<path d="M0 0 C0.33 0.66 0.66 1.32 1 2 C1.66 2 2.32 2 3 2 C3 2.99 3 3.98 3 5 C1.02 5 -0.96 5 -3 5 C-2.625 3.0625 -2.625 3.0625 -2 1 C-1.34 0.67 -0.68 0.34 0 0 Z " fill="#4EF0E7" transform="translate(243,146)"/>
<path d="M0 0 C1.98 0.99 3.96 1.98 6 3 C6 3.99 6 4.98 6 6 C3.5625 5.25 3.5625 5.25 1 4 C0.1875 1.875 0.1875 1.875 0 0 Z " fill="#3BEDF1" transform="translate(165,119)"/>
<path d="M0 0 C1.65 0 3.3 0 5 0 C5.33 1.32 5.66 2.64 6 4 C4.35 3.67 2.7 3.34 1 3 C0.67 2.01 0.34 1.02 0 0 Z " fill="#43F1E8" transform="translate(228,78)"/>
<path d="M0 0 C2.31 0 4.62 0 7 0 C7 1.32 7 2.64 7 4 C4.625 3.6875 4.625 3.6875 2 3 C1.34 2.01 0.68 1.02 0 0 Z " fill="#3FEEEC" transform="translate(220,74)"/>
<path d="M0 0 C1.32 0 2.64 0 4 0 C4.33 1.32 4.66 2.64 5 4 C3.35 4 1.7 4 0 4 C0 2.68 0 1.36 0 0 Z " fill="#80F0ED" transform="translate(264,59)"/>
<path d="M0 0 C0.99 0 1.98 0 3 0 C3.33 0.99 3.66 1.98 4 3 C3.34 3 2.68 3 2 3 C2 3.66 2 4.32 2 5 C0.68 4.34 -0.64 3.68 -2 3 C-1.34 2.01 -0.68 1.02 0 0 Z " fill="#5CF5EA" transform="translate(212,176)"/>
<path d="M0 0 C0.66 0 1.32 0 2 0 C2.33 2.97 2.66 5.94 3 9 C2.34 8.67 1.68 8.34 1 8 C0.40644386 5.35139573 0.25790731 2.70802678 0 0 Z " fill="#67F5EA" transform="translate(288,159)"/>
<path d="M0 0 C0.7425 0.45375 1.485 0.9075 2.25 1.375 C4.46930578 2.68640796 6.67967822 3.88280803 9 5 C7 6 7 6 4.5 5.875 C2 5 2 5 0.6875 2.4375 C0.460625 1.633125 0.23375 0.82875 0 0 Z " fill="#2ED4D3" transform="translate(173,127)"/>
<path d="M0 0 C1.32 0.33 2.64 0.66 4 1 C4 1.99 4 2.98 4 4 C2.68 4 1.36 4 0 4 C0 2.68 0 1.36 0 0 Z " fill="#5FCEDB" transform="translate(238,59)"/>
<path d="" fill="#000000" transform="translate(0,0)"/>
<path d="" fill="#000000" transform="translate(0,0)"/>
<path d="" fill="#000000" transform="translate(0,0)"/>
<path d="" fill="#000000" transform="translate(0,0)"/>
<path d="" fill="#000000" transform="translate(0,0)"/>
<path d="" fill="#000000" transform="translate(0,0)"/>
<path d="" fill="#000000" transform="translate(0,0)"/>
<path d="" fill="#000000" transform="translate(0,0)"/>
<path d="" fill="#000000" transform="translate(0,0)"/>
<path d="" fill="#000000" transform="translate(0,0)"/>
<path d="" fill="#000000" transform="translate(0,0)"/>
<path d="" fill="#000000" transform="translate(0,0)"/>
<path d="" fill="#000000" transform="translate(0,0)"/>
<path d="" fill="#000000" transform="translate(0,0)"/>
<path d="" fill="#000000" transform="translate(0,0)"/>
<path d="" fill="#000000" transform="translate(0,0)"/>
<path d="" fill="#000000" transform="translate(0,0)"/>
<path d="" fill="#000000" transform="translate(0,0)"/>
<path d="" fill="#000000" transform="translate(0,0)"/>
<path d="" fill="#000000" transform="translate(0,0)"/>
<path d="" fill="#000000" transform="translate(0,0)"/>
<path d="" fill="#000000" transform="translate(0,0)"/>
<path d="" fill="#000000" transform="translate(0,0)"/>
<path d="" fill="#000000" transform="translate(0,0)"/>
<path d="" fill="#FFFFFF" transform="translate(0,0)"/>
<path d="" fill="#000000" transform="translate(0,0)"/>
<path d="" fill="#000000" transform="translate(0,0)"/>
<path d="" fill="#000000" transform="translate(0,0)"/>
<path d="" fill="#000000" transform="translate(0,0)"/>
<path d="" fill="#000000" transform="translate(0,0)"/>
<path d="" fill="#000000" transform="translate(0,0)"/>
<path d="" fill="#000000" transform="translate(0,0)"/>
<path d="" fill="#000000" transform="translate(0,0)"/>
<path d="" fill="#000000" transform="translate(0,0)"/>
<path d="" fill="#000000" transform="translate(0,0)"/>
<path d="" fill="#000000" transform="translate(0,0)"/>
<path d="" fill="#000000" transform="translate(0,0)"/>
<path d="" fill="#000000" transform="translate(0,0)"/>
<path d="" fill="#000000" transform="translate(0,0)"/>
<path d="" fill="#000000" transform="translate(0,0)"/>
<path d="" fill="#000000" transform="translate(0,0)"/>
<path d="" fill="#000000" transform="translate(0,0)"/>
<path d="" fill="#000000" transform="translate(0,0)"/>
<path d="" fill="#000000" transform="translate(0,0)"/>
<path d="" fill="#000000" transform="translate(0,0)"/>
<path d="" fill="#000000" transform="translate(0,0)"/>
<path d="" fill="#000000" transform="translate(0,0)"/>
<path d="" fill="#000000" transform="translate(0,0)"/>
<path d="" fill="#000000" transform="translate(0,0)"/>
<path d="" fill="#000000" transform="translate(0,0)"/>
<path d="" fill="#000000" transform="translate(0,0)"/>
<path d="" fill="#000000" transform="translate(0,0)"/>
<path d="" fill="#000000" transform="translate(0,0)"/>
<path d="" fill="#000000" transform="translate(0,0)"/>
<path d="" fill="#000000" transform="translate(0,0)"/>
<path d="" fill="#000000" transform="translate(0,0)"/>
<path d="" fill="#000000" transform="translate(0,0)"/>
<path d="" fill="#000000" transform="translate(0,0)"/>
<path d="" fill="#000000" transform="translate(0,0)"/>
<path d="" fill="#000000" transform="translate(0,0)"/>
<path d="" fill="#000000" transform="translate(0,0)"/>
<path d="" fill="#000000" transform="translate(0,0)"/>
<path d="" fill="#000000" transform="translate(0,0)"/>
<path d="" fill="#000000" transform="translate(0,0)"/>
<path d="" fill="#000000" transform="translate(0,0)"/>
<path d="" fill="#000000" transform="translate(0,0)"/>
<path d="" fill="#000000" transform="translate(0,0)"/>
<path d="" fill="#000000" transform="translate(0,0)"/>
<path d="" fill="#FF0000" transform="translate(0,0)"/>
<path d="" fill="#000000" transform="translate(0,0)"/>
<path d="" fill="#000000" transform="translate(0,0)"/>
<path d="" fill="#000000" transform="translate(0,0)"/>
<path d="" fill="#000000" transform="translate(0,0)"/>
<path d="" fill="#000000" transform="translate(0,0)"/>
<path d="" fill="#000000" transform="translate(0,0)"/>
</svg>
